<?xml version="1.0" encoding="UTF-8" standalone="no"?>
<svg
   width="213.8381"
   height="169.84918"
   id="svg6854"
   version="1.1"
   inkscape:version="1.2.2 (b0a84865, 2022-12-01)"
   sodipodi:docname="MartletSable_(English).svg"
   xmlns:inkscape="http://www.inkscape.org/namespaces/inkscape"
   xmlns:sodipodi="http://sodipodi.sourceforge.net/DTD/sodipodi-0.dtd"
   xmlns="http://www.w3.org/2000/svg"
   xmlns:svg="http://www.w3.org/2000/svg"
   xmlns:rdf="http://www.w3.org/1999/02/22-rdf-syntax-ns#"
   xmlns:cc="http://creativecommons.org/ns#"
   xmlns:dc="http://purl.org/dc/elements/1.1/">
  <title
     id="title414">Lobsterthermidor, https://w.wiki/9ayF</title>
  <defs
     id="defs141" />
  <sodipodi:namedview
     id="namedview139"
     pagecolor="#ffffff"
     bordercolor="#000000"
     borderopacity="0.25"
     inkscape:showpageshadow="2"
     inkscape:pageopacity="0.0"
     inkscape:pagecheckerboard="0"
     inkscape:deskcolor="#d1d1d1"
     showgrid="false"
     inkscape:zoom="1.4123578"
     inkscape:cx="175.94692"
     inkscape:cy="38.941973"
     inkscape:window-width="1440"
     inkscape:window-height="760"
     inkscape:window-x="0"
     inkscape:window-y="25"
     inkscape:window-maximized="0"
     inkscape:current-layer="svg6854" />
  <path
     id="path527"
     style="fill:none;stroke:#cccccc;stroke-width:3;stroke-linecap:round;stroke-linejoin:round;stroke-dasharray:none;stroke-opacity:1"
     d="M 49.215084,1.5035164 C 46.225546,1.5859164 44.242102,2.0803436 42.760006,2.482032 42.01895,2.6828712 41.397926,2.8595143 40.84985,2.9957039 34.697744,6.0083314 31.775872,8.7018774 27.457272,16.196875 L 1.5373501,12.491797 C 0.47444414,12.860627 25.732662,26.985938 25.732662,26.985938 l 2.441407,14.525391 c -9.94443,7.016248 -22.7426199,21.060203 -15.648438,44.519531 5.36309,11.809621 11.743559,12.007531 22.640625,19.6289 -0.401126,4.01418 0.275819,6.2245 -1.974609,15.64649 l -0.002,0.008 -0.002,0.008 c -1.397392,6.87951 -4.157004,12.28041 -8.142578,17.0293 l 0.66211,0.73633 6.957031,-4.69922 c 2.526048,-1.68995 4.389208,-4.04157 5.871094,-6.07812 0.886956,-1.22251 1.652498,-2.50976 2.333984,-3.71485 1.493376,8.07385 2.353585,16.25604 0.820313,22.96485 l 0.86914,0.43554 c 0,0 2.765428,-3.22958 3.933594,-5.13281 1.007336,-1.64114 2.396484,-4.99805 2.396484,-4.99805 l 0.002,-0.002 v -0.002 c 0.897636,-2.21542 0.921386,-4.77253 0.847656,-7.34766 0.949696,2.46805 2.345989,5.98145 3.671875,8.43945 2.843818,5.27209 9.865234,14.76758 9.865234,14.76758 l 0.878906,-0.45117 c 0,0 -4.888547,-15.21967 -6.408203,-22.95898 -0.922586,-4.69855 -1.618305,-13.28103 -1.734375,-14.73438 1.196366,0.699 6.054976,3.51717 9.277344,4.7168 3.745704,1.39446 10.998264,2.71922 11.5,2.81054 0.15406,0.46174 3.194755,9.59008 3.894531,14.39063 0.956946,6.5621 0.494141,20.16211 0.494141,20.16211 l 0.945312,0.24414 c 0,0 3.911811,-7.64708 5.240231,-11.83984 0.92042,-2.90505 1.63788,-7.5797 1.8711,-9.14649 1.02238,1.33712 5.05842,6.63957 7.07226,9.97852 2.52214,4.18162 6.666019,13.23826 6.666019,13.23828 l 0.95508,-0.23438 c 0,0 -0.5287,-10.62204 -1.86719,-15.88476 -0.71267,-2.80213 -2.228629,-6.43326 -3.544919,-9.39844 0.75019,1.00509 0.78193,1.10367 1.820309,2.41992 2.60529,3.3025 5.84208,7.13412 8.48242,9.32227 2.6553,2.20054 7.04845,4.68448 10.79883,6.64258 3.75041,1.95806 6.85156,3.3789 6.85156,3.3789 l 0.55078,-0.82031 c 0,0 -10.20929,-9.54141 -14.61914,-14.81836 -3.73018,-4.46372 -10.42762,-14.53454 -11.27343,-15.80859 1.45054,-0.0113 10.5788,-0.0649 16.22265,0.77343 6.10132,0.90626 13.76367,2.87443 19.68164,4.69727 7.09209,2.18449 17.08995,7.36245 25.28321,11.99023 14.41757,8.42742 28.60001,17.25574 42.85351,25.95899 l 0.64649,-0.74414 c 0,0 -13.84192,-16.96392 -22.17579,-24.17774 -7.18358,-6.21813 -21.53974,-14.93674 -23.77929,-16.29101 2.56216,-0.0178 16.77913,-0.14747 24.85351,-1.4961 9.51252,-1.58878 27.625,-7.74414 27.625,-7.74414 l -0.15234,-0.97461 c 0,0 -38.92401,-0.65359 -57.60938,-4.93359 -8.95066,-2.05021 -23.68071,-8.41683 -26.01367,-9.43555 -5.42755,1.21892 -11.27589,1.88407 -16.83789,1.97657 -8.55741,0.14233 -17.321799,-0.50532 -25.656247,-2.45118 -7.751486,-1.80972 -15.215421,-5.006559 -22.34375,-8.548823 -5.712732,-2.838814 -11.951002,-6.670672 -16,-10.5 -4.048998,-3.829331 -6.726466,-7.075445 -8.5,-11.5 -2.164224,-5.399235 -1.954988,-12.185875 2.5,-16.5 3.447268,-3.338271 8.745455,-4.350423 13.5,-5 3.976908,-0.54334 12,1 12,1 -62.2041479,-3.204037 -9.826119,65.796053 64.902347,50.066403 8.16762,-3.357319 20.02539,-8.97656 20.02539,-8.97656 l 10.27739,-6.015905 -0.33984,-0.923828 c 0,0 -23.10131,4.106111 -34.67969,4.494141 -6.05412,0.202898 -14.78247,-0.60225 -19.33203,-1.054688 0.0927,0.01774 0.18491,0.03518 0.27734,0.05078 -1.02566,-0.09794 -2.19755,-0.210462 -2.8164,-0.279297 C 95.477458,87.271077 79.963131,66.583594 79.963131,66.583594 74.577475,60.436428 69.683116,53.870198 64.635006,47.444922 c -1.112576,-2.885378 -1.219049,-5.888468 -0.002,-8.566406 l 5.033203,-11.091797 c 0,0 0.916087,-5.28777 0.748047,-8.142578 -0.0308,-0.523486 -0.270133,-1.37373 -0.724609,-2.570312 C 69.235167,15.877243 68.559395,14.393306 67.634959,12.8375 65.786134,9.7259124 62.947998,6.3179264 58.908444,4.4332039 55.701396,2.9369099 52.204622,1.4210668 49.215084,1.5035164 Z M 44.28735,13.675391 a 3.8789999,3.8789999 0 0 1 3.878906,3.878906 3.8789999,3.8789999 0 0 1 -3.878906,3.878906 3.8789999,3.8789999 0 0 1 -3.878906,-3.878906 3.8789999,3.8789999 0 0 1 3.878906,-3.878906 z m -0.01953,2.296875 a 1.646,1.646 0 0 0 -1.644532,1.646484 1.646,1.646 0 0 0 1.644532,1.644532 1.646,1.646 0 0 0 1.646484,-1.644532 1.646,1.646 0 0 0 -1.646484,-1.646484 z m 109.74023,44.230469 c 0,0 -25.50555,9.193874 -38.66601,11.476562 -9.01076,1.562946 -18.645392,4.525776 -26.994142,1.523438 -1.15132,-0.414034 -2.437869,-1.264995 -3.73047,-2.28125 5.39477,5.596661 13.81719,14.662662 21.632812,17.220703 3.60494,-1.188555 14.13312,-4.720627 20.41016,-8.027344 10.02029,-5.27864 27.82422,-19.046905 27.82422,-19.046875 z" />
  <path
     id="body"
     style="fill:#ffff00"
     d="M 49.215084,1.5035164 C 46.225546,1.5859164 44.242102,2.0803436 42.760006,2.482032 42.01895,2.6828712 41.397926,2.8595143 40.84985,2.9957039 34.697744,6.0083314 31.775872,8.7018774 27.457272,16.196875 L 1.5373501,12.491797 C 0.47444414,12.860627 25.732662,26.985938 25.732662,26.985938 l 2.441407,14.525391 c -9.94443,7.016248 -22.7426199,21.060203 -15.648438,44.519531 5.36309,11.809621 11.743559,12.007531 22.640625,19.6289 -0.401126,4.01418 0.275819,6.2245 -1.974609,15.64649 l -0.002,0.008 -0.002,0.008 c -1.397392,6.87951 -4.157004,12.28041 -8.142578,17.0293 l 0.66211,0.73633 6.957031,-4.69922 c 2.526048,-1.68995 4.389208,-4.04157 5.871094,-6.07812 0.886956,-1.22251 1.652498,-2.50976 2.333984,-3.71485 1.493376,8.07385 2.353585,16.25604 0.820313,22.96485 l 0.86914,0.43554 c 0,0 2.765428,-3.22958 3.933594,-5.13281 1.007336,-1.64114 2.396484,-4.99805 2.396484,-4.99805 l 0.002,-0.002 v -0.002 c 0.897636,-2.21542 0.921386,-4.77253 0.847656,-7.34766 0.949696,2.46805 2.345989,5.98145 3.671875,8.43945 2.843818,5.27209 9.865234,14.76758 9.865234,14.76758 l 0.878906,-0.45117 c 0,0 -4.888547,-15.21967 -6.408203,-22.95898 -0.922586,-4.69855 -1.618305,-13.28103 -1.734375,-14.73438 1.196366,0.699 6.054976,3.51717 9.277344,4.7168 3.745704,1.39446 10.998264,2.71922 11.5,2.81054 0.15406,0.46174 3.194755,9.59008 3.894531,14.39063 0.956946,6.5621 0.494141,20.16211 0.494141,20.16211 l 0.945312,0.24414 c 0,0 3.911811,-7.64708 5.240231,-11.83984 0.92042,-2.90505 1.63788,-7.5797 1.8711,-9.14649 1.02238,1.33712 5.05842,6.63957 7.07226,9.97852 2.52214,4.18162 6.666019,13.23826 6.666019,13.23828 l 0.95508,-0.23438 c 0,0 -0.5287,-10.62204 -1.86719,-15.88476 -0.71267,-2.80213 -2.228629,-6.43326 -3.544919,-9.39844 0.75019,1.00509 0.78193,1.10367 1.820309,2.41992 2.60529,3.3025 5.84208,7.13412 8.48242,9.32227 2.6553,2.20054 7.04845,4.68448 10.79883,6.64258 3.75041,1.95806 6.85156,3.3789 6.85156,3.3789 l 0.55078,-0.82031 c 0,0 -10.20929,-9.54141 -14.61914,-14.81836 -3.73018,-4.46372 -10.42762,-14.53454 -11.27343,-15.80859 1.45054,-0.0113 10.5788,-0.0649 16.22265,0.77343 6.10132,0.90626 13.76367,2.87443 19.68164,4.69727 7.09209,2.18449 17.08995,7.36245 25.28321,11.99023 14.41757,8.42742 28.60001,17.25574 42.85351,25.95899 l 0.64649,-0.74414 c 0,0 -13.84192,-16.96392 -22.17579,-24.17774 -7.18358,-6.21813 -21.53974,-14.93674 -23.77929,-16.29101 2.56216,-0.0178 16.77913,-0.14747 24.85351,-1.4961 9.51252,-1.58878 27.625,-7.74414 27.625,-7.74414 l -0.15234,-0.97461 c 0,0 -38.92401,-0.65359 -57.60938,-4.93359 -8.95066,-2.05021 -23.68071,-8.41683 -26.01367,-9.43555 -5.42755,1.21892 -11.27589,1.88407 -16.83789,1.97657 -8.55741,0.14233 -17.321799,-0.50532 -25.656247,-2.45118 -7.751486,-1.80972 -15.215421,-5.006559 -22.34375,-8.548823 -5.712732,-2.838814 -11.951002,-6.670672 -16,-10.5 -4.048998,-3.829331 -6.726466,-7.075445 -8.5,-11.5 -2.164224,-5.399235 -1.954988,-12.185875 2.5,-16.5 3.447268,-3.338271 8.745455,-4.350423 13.5,-5 3.976908,-0.54334 12,1 12,1 -62.2041479,-3.204037 -9.826119,65.796053 64.902347,50.066403 8.16762,-3.357319 20.02539,-8.97656 20.02539,-8.97656 l 10.27739,-6.015905 -0.33984,-0.923828 c 0,0 -23.10131,4.106111 -34.67969,4.494141 -6.05412,0.202898 -14.78247,-0.60225 -19.33203,-1.054688 0.0927,0.01774 0.18491,0.03518 0.27734,0.05078 -1.02566,-0.09794 -2.19755,-0.210462 -2.8164,-0.279297 C 95.477458,87.271077 79.963131,66.583594 79.963131,66.583594 74.577475,60.436428 69.683116,53.870198 64.635006,47.444922 c -1.112576,-2.885378 -1.219049,-5.888468 -0.002,-8.566406 l 5.033203,-11.091797 c 0,0 0.916087,-5.28777 0.748047,-8.142578 -0.0308,-0.523486 -0.270133,-1.37373 -0.724609,-2.570312 C 69.235167,15.877243 68.559395,14.393306 67.634959,12.8375 65.786134,9.7259124 62.947998,6.3179264 58.908444,4.4332039 55.701396,2.9369099 52.204622,1.4210668 49.215084,1.5035164 Z M 44.28735,13.675391 a 3.8789999,3.8789999 0 0 1 3.878906,3.878906 3.8789999,3.8789999 0 0 1 -3.878906,3.878906 3.8789999,3.8789999 0 0 1 -3.878906,-3.878906 3.8789999,3.8789999 0 0 1 3.878906,-3.878906 z m -0.01953,2.296875 a 1.646,1.646 0 0 0 -1.644532,1.646484 1.646,1.646 0 0 0 1.644532,1.644532 1.646,1.646 0 0 0 1.646484,-1.644532 1.646,1.646 0 0 0 -1.646484,-1.646484 z m 109.74023,44.230469 c 0,0 -25.50555,9.193874 -38.66601,11.476562 -9.01076,1.562946 -18.645392,4.525776 -26.994142,1.523438 -1.15132,-0.414034 -2.437869,-1.264995 -3.73047,-2.28125 5.39477,5.596661 13.81719,14.662662 21.632812,17.220703 3.60494,-1.188555 14.13312,-4.720627 20.41016,-8.027344 10.02029,-5.27864 27.82422,-19.046905 27.82422,-19.046875 z" />
  <metadata
     id="metadata412">
    <rdf:RDF>
      <cc:Work
         rdf:about="">
        <dc:title>Lobsterthermidor, https://w.wiki/9ayF</dc:title>
      </cc:Work>
    </rdf:RDF>
  </metadata>
</svg>
