<?xml version="1.0" encoding="UTF-8" standalone="no"?>
<!-- Created with Inkscape (http://www.inkscape.org/) -->

<svg
   width="66.322227"
   height="70.670677"
   viewBox="0 0 66.322228 70.670677"
   version="1.1"
   id="svg1152"
   xml:space="preserve"
   sodipodi:docname="simurgh-rising.svg"
   inkscape:version="1.2.2 (b0a84865, 2022-12-01)"
   xmlns:inkscape="http://www.inkscape.org/namespaces/inkscape"
   xmlns:sodipodi="http://sodipodi.sourceforge.net/DTD/sodipodi-0.dtd"
   xmlns="http://www.w3.org/2000/svg"
   xmlns:svg="http://www.w3.org/2000/svg"
   xmlns:rdf="http://www.w3.org/1999/02/22-rdf-syntax-ns#"
   xmlns:cc="http://creativecommons.org/ns#"
   xmlns:dc="http://purl.org/dc/elements/1.1/"><defs
     id="defs12241" /><sodipodi:namedview
     id="namedview12239"
     pagecolor="#ffffff"
     bordercolor="#000000"
     borderopacity="0.25"
     inkscape:showpageshadow="2"
     inkscape:pageopacity="0.0"
     inkscape:pagecheckerboard="0"
     inkscape:deskcolor="#d1d1d1"
     showgrid="false"
     inkscape:zoom="6.063793"
     inkscape:cx="13.687802"
     inkscape:cy="38.589708"
     inkscape:window-width="1440"
     inkscape:window-height="900"
     inkscape:window-x="0"
     inkscape:window-y="0"
     inkscape:window-maximized="0"
     inkscape:current-layer="svg1152" /><g
     id="Simurgh_Rising"
     fill-opacity="1"
     fill="none"
     stroke="none"
     stroke-opacity="1"
     stroke-dasharray="none"
     transform="matrix(0.26458333,0,0,0.26458333,-12.259025,-16.668736)"><title
       id="title14317">Simurgh Rising</title><g
       id="Simurgh_Rising_Layer_2"><title
         id="title14319">Layer 2</title><g
         id="Group_3"><g
           id="Graphic_70"><path
             d="m 155.58915,63.552256 c 0,3.208304 -2.3412,13.613624 -3.55515,16.128239 -1.90764,3.728575 -3.2083,4.682395 -4.50897,3.381725 -1.5608,-1.56079 -2.42791,-1.12724 -1.82093,1.12725 0.60697,2.51461 -0.7804,7.9774 -3.72857,14.56744 -2.42791,5.5495 -3.72858,6.41661 -3.72858,2.4279 0,-3.81528 -1.56079,-3.2083 -3.55515,1.30067 -1.99435,4.42226 -2.77475,4.42226 -4.24883,0 -1.47409,-4.50897 -2.86147,-3.81528 -2.08107,1.04053 0.86711,5.98306 3.46844,9.97176 9.01794,13.78704 2.60133,1.90765 6.50333,5.11595 8.6711,7.28372 5.80964,5.80964 9.97176,15.60798 6.59003,15.60798 -1.73421,0 -12.6598,-5.80964 -15.00099,-7.97741 -1.04053,-0.95382 -4.50898,-7.02359 -7.71728,-13.35349 -3.1216,-6.41661 -6.3299,-12.05282 -6.93687,-12.57309 -1.5608,-1.30066 -1.5608,-2.51462 0.0867,-2.51462 1.56079,0 1.73422,-2.60133 0.26013,-2.60133 -0.7804,-0.0867 -0.60698,-0.43355 0.26013,-1.12724 1.30067,-0.95382 1.5608,-3.55515 0.86711,-9.10465 0,-0.60698 -1.30066,-1.04053 -3.12159,-1.04053 -1.82093,0 -3.03489,-0.43356 -3.03489,-1.12724 0,-0.52027 -0.34684,-1.5608 -0.7804,-2.25449 -0.69368,-1.04053 -1.12724,-1.04053 -2.08106,-0.26013 -1.04053,0.86711 -1.38737,0.7804 -1.82093,-0.26013 -0.60698,-1.73422 -5.72292,-3.902 -9.10465,-3.902 -3.12159,0 -5.46279,2.94817 -4.68239,5.89635 0.52026,2.16777 1.99435,2.60133 1.99435,0.60697 0,-2.25448 4.94252,-1.6475 6.50332,0.7804 1.82093,2.77475 1.47409,8.6711 -0.60697,9.01794 -0.86711,0.17343 -4.76911,-1.30066 -8.6711,-3.2083 -6.93688,-3.38173 -9.36478,-4.16213 -9.36478,-3.03489 0,0.26014 1.73421,2.51462 3.90199,4.94253 l 3.90199,4.50897 -4.94252,0.43355 c -6.85017,0.60698 -6.76346,2.51462 0.17342,4.42226 6.76345,1.82093 21.15747,9.10465 21.85116,11.0123 0.26014,0.78039 2.08106,3.64186 3.90199,6.24318 6.85017,9.79834 9.62492,14.39402 11.18572,18.55615 1.90764,5.11595 2.42791,5.72292 3.64186,3.90199 0.7804,-1.30066 1.21395,-1.04053 2.94817,1.5608 1.12724,1.5608 1.99435,3.1216 1.99435,3.29502 0,1.21395 -5.02923,0.17342 -8.84451,-1.73422 -6.15648,-3.1216 -11.61927,-8.58439 -15.26114,-15.52126 -3.2083,-6.06977 -5.37607,-7.71728 -12.57308,-9.53821 -2.25449,-0.52027 -2.42791,-0.43355 -1.90764,1.21395 0.60697,1.90764 -0.08672,2.16778 -3.29502,0.95382 -2.68804,-1.04053 -3.72857,-0.17342 -1.64751,1.30067 1.30067,1.04053 1.21395,1.12724 -0.86711,1.21395 -3.12159,0 -34.59767,-5.80963 -37.71927,-7.02359 -4.335546,-1.6475 -9.798337,-2.34119 -9.798337,-1.30066 0.08671,1.30066 9.104651,10.14518 13.440197,13.00664 l 3.46844,2.3412 -6.41661,-0.17342 c -3.55515,-0.0867 -6.590033,0.17342 -6.763455,0.60698 -0.433555,1.38737 6.243189,7.28372 8.931229,7.80398 1.387376,0.34685 6.3299,1.21395 11.099006,1.99435 l 8.58438,1.47409 -5.11594,1.82093 c -2.86147,0.95382 -7.63057,2.25448 -10.75216,2.86146 -3.1216,0.60698 -6.76346,1.73422 -8.237545,2.42791 l -2.601329,1.30066 3.555149,1.5608 c 5.983055,2.68805 14.827575,3.64186 22.891695,2.51462 3.90199,-0.52027 7.63056,-1.21395 8.41096,-1.47409 0.69369,-0.26013 -0.17342,1.47409 -1.90764,3.98871 -3.55515,4.94252 -11.445845,13.09335 -12.6598,13.09335 -0.43355,0 -0.7804,0.43356 -0.7804,0.95382 0,1.30067 6.85017,0.26014 12.39967,-1.90764 2.3412,-0.95382 4.42226,-1.5608 4.59568,-1.47408 0.08671,0.17342 -1.47408,2.16776 -3.64186,4.50896 -2.08106,2.3412 -3.64186,4.42226 -3.38173,4.6824 0.52027,0.52026 13.18007,-2.25449 15.43456,-3.46844 1.90764,-0.95382 1.90764,-0.0867 -0.26014,3.46844 -0.95382,1.5608 -1.56079,3.2083 -1.30066,3.55515 0.86711,1.47408 14.2206,-2.77475 16.04153,-5.02924 0.26013,-0.26013 1.30066,-1.30066 2.4279,-2.16777 l 1.99436,-1.73422 -0.52027,3.90199 c -0.34685,2.08106 -1.21395,5.28937 -1.90764,7.11029 -0.7804,1.73423 -1.12724,3.46845 -0.86711,3.72858 1.04053,1.04053 8.93123,-4.16212 11.01229,-7.19701 2.08106,-3.03488 2.16777,-3.12159 2.42791,-1.04053 0.17342,1.12724 0.60697,2.42791 1.04053,2.77476 1.04053,1.12723 4.07541,-0.7804 5.72292,-3.72858 1.21395,-1.99435 1.82093,-2.3412 2.77475,-1.5608 1.90764,1.64751 5.4628,-2.68804 5.98306,-7.37042 0.43356,-3.55516 0.69369,-3.902 2.08106,-3.20832 1.90764,1.04054 2.86147,-0.17342 2.08107,-2.86146 -0.43356,-1.56079 -0.26014,-1.47408 1.12724,0.60698 0.95382,1.38738 1.99435,4.16213 2.3412,6.24319 0.52026,3.98871 1.56079,4.76911 2.86146,2.42791 0.60697,-1.12725 1.30066,-0.60698 3.46844,2.86146 1.47408,2.34119 3.90199,5.37608 5.37607,6.76345 2.16778,2.08107 2.86147,2.34119 3.46844,1.30067 0.60698,-0.95382 1.38738,-0.52027 3.81529,2.16777 3.03487,3.29502 3.12159,3.55515 3.12159,10.31861 0,3.90199 -0.34684,7.54384 -0.7804,8.23754 -0.60697,0.95382 -2.77475,1.21395 -9.79834,1.04053 -9.71162,-0.17343 -13.70033,0.7804 -13.70033,3.46844 0,0.7804 -0.26013,2.08106 -0.52026,2.86146 -0.43356,1.04053 0,1.38737 1.64751,1.38737 1.73421,0 2.08106,0.34685 1.73421,1.64751 -0.52026,1.90764 1.73422,2.68804 4.94253,1.73422 4.59568,-1.30066 9.10465,-0.7804 14.30731,1.64751 6.3299,3.03488 7.02358,3.81528 7.80398,9.27807 0.52027,3.98871 0.69369,4.16213 1.82093,2.60133 1.47409,-1.99434 1.5608,-8.41096 0.17343,-12.31295 -0.95383,-2.68804 -0.86711,-3.03489 1.64751,-5.63622 1.47408,-1.56079 3.46843,-4.24883 4.50896,-5.89634 0.95382,-1.64751 1.82094,-2.86146 1.82094,-2.60133 0,1.5608 -3.38173,9.79834 -4.6824,11.18571 -1.38737,1.47409 -1.38737,1.64751 0.26013,2.08107 0.95383,0.26012 1.90765,0 2.08107,-0.52028 0.17342,-0.52026 0.69369,-0.60697 1.21395,-0.34683 1.12725,0.69368 -0.69369,8.32425 -2.86145,11.61927 -1.5608,2.51461 -1.5608,2.86146 0.34683,2.86146 0.7804,0.0867 0.17343,0.60697 -1.47408,1.30066 -2.51462,1.12724 -3.46845,1.12724 -7.97741,0 -2.86146,-0.7804 -6.15648,-1.82093 -7.45714,-2.4279 -1.82093,-0.7804 -2.3412,-0.7804 -2.68804,0.0867 -0.17343,0.69368 -0.7804,0.78039 -1.73422,0.26013 -2.51462,-1.21395 -16.38838,-3.81528 -17.77575,-3.29502 -0.7804,0.26014 -1.12724,1.21396 -0.95382,2.08107 0.43355,1.6475 -0.26013,2.16777 -11.099,7.89069 -3.29502,1.64751 -5.89635,3.38173 -5.89635,3.72857 0,0.34685 0.7804,0.95383 1.73422,1.21396 0.95382,0.26013 1.73422,0.86711 1.73422,1.30066 0,0.95382 -8.6711,6.93687 -9.97176,6.93687 -0.43356,0 -1.47409,0.43356 -2.16778,0.86712 -1.12724,0.69368 -1.04053,0.95382 0.43356,2.08106 1.64751,1.30067 1.5608,1.30067 -1.38738,1.38738 -1.73422,0 -5.02923,-0.60698 -7.37043,-1.30066 -3.2083,-0.95383 -4.33555,-0.95383 -4.85581,-0.17343 -0.43356,0.69369 -1.30067,0.34683 -3.03489,-1.12724 -1.30066,-1.21395 -2.51461,-2.42791 -2.68804,-2.77475 -0.17342,-0.34685 -1.04053,-1.5608 -1.99435,-2.60133 -1.5608,-1.90765 -1.73422,-1.90765 -2.86146,-0.43355 -1.12724,1.38737 -1.38738,1.30066 -3.9887,-1.73422 -1.5608,-1.73422 -3.81529,-5.37608 -4.94253,-7.97741 -2.08106,-4.59568 -2.25448,-4.76911 -3.38173,-3.1216 -1.12724,1.47409 -1.38737,1.5608 -2.08106,0.43356 -1.47409,-2.25449 -0.95382,-7.8907 0.95382,-11.0123 2.08106,-3.38173 1.82093,-4.33554 -0.95382,-2.86146 -2.25449,1.21396 -2.68804,0.95383 -2.08106,-1.30067 0.60697,-2.08106 7.28372,-7.54385 10.57873,-8.58438 3.1216,-1.04052 3.20831,-1.12724 1.82093,-2.77475 -1.12724,-1.38737 -0.95382,-1.47408 1.38738,-0.86711 4.42226,1.04054 11.18571,4.68239 12.39967,6.67674 0.95382,1.4741 0.95382,2.3412 0.0867,4.42227 -0.69369,1.73421 -0.7804,2.77475 -0.17342,3.12159 0.52026,0.34684 1.12724,2.51462 1.30066,4.7691 0.52027,4.76911 2.08106,7.1103 2.86146,4.42226 0.34684,-0.86712 0.95382,-2.60132 1.47409,-3.81528 l 0.86711,-2.16777 0.95382,2.16777 c 1.82093,4.07542 3.2083,4.07542 5.20266,0.17342 3.90199,-7.45714 3.81528,-7.37043 4.7691,-5.63621 1.38738,2.3412 2.25449,0.69369 2.16777,-4.07542 0,-2.34119 0.26014,-4.07541 0.60698,-3.90199 0.43356,0.26013 0.95382,0.0867 1.21395,-0.34684 0.52027,-0.7804 -3.46844,-6.67675 -5.80963,-8.6711 -1.82093,-1.47409 -1.82093,-2.60133 -0.0867,-4.59568 1.82093,-1.90764 1.73422,-1.99435 -10.92558,-3.29502 -5.46279,-0.52026 -12.05283,-1.38737 -14.48073,-1.90764 -4.16213,-0.86711 -4.50897,-1.12724 -4.07542,-3.03488 0.43356,-1.5608 0.17342,-1.99435 -1.12724,-1.99435 -2.77475,0 -12.57309,6.24318 -17.77575,11.35913 -4.248836,4.16214 -4.94252,4.59568 -5.37608,3.1216 -0.17342,-0.86711 -0.7804,-1.38738 -1.30066,-1.12725 -1.5608,0.95382 -1.994355,7.97741 -0.95382,14.04719 0.60697,3.295 1.12724,7.37042 1.21395,9.10464 0,1.73422 0.520266,3.64186 1.04053,4.33556 0.52027,0.69368 1.90764,2.94816 3.1216,5.11594 1.21395,2.16776 3.64186,5.63621 5.37608,7.80398 2.601325,3.29502 2.86146,3.98871 1.734215,4.59568 -1.213955,0.6937 -1.040535,1.04054 0.693685,2.94818 1.90764,2.08106 9.88505,7.28372 17.42891,11.27242 1.90764,1.12724 4.85581,1.99435 6.41661,1.99435 2.16777,0 2.68804,0.34685 2.34119,1.30067 -0.43355,1.04053 0.26014,1.30066 3.72858,1.30066 4.50897,0 13.78704,-2.08106 15.52126,-3.55515 0.69369,-0.60697 1.21395,-0.60697 1.64751,0.0867 1.12724,1.82093 3.64186,0.7804 7.71727,-3.38172 2.94817,-2.94818 4.68239,-4.07542 5.80964,-3.81529 1.04053,0.34685 1.6475,0 1.6475,-0.78039 0,-1.38738 8.41097,-11.09901 9.62492,-11.09901 0.52027,0 0.60698,0.34685 0.34685,0.86711 -0.69369,1.12724 0.43355,1.12724 9.10465,-0.43354 4.07541,-0.6937 8.67109,-1.30068 10.3186,-1.30068 2.60133,0 2.86146,0.17342 2.51462,2.16778 -0.69369,3.38172 3.03488,2.77475 8.49767,-1.30067 2.51462,-1.90763 4.76911,-3.46843 5.02924,-3.46843 0.26013,0 0.52027,1.04053 0.69369,2.3412 0.43355,3.64185 1.73421,3.2083 4.85581,-1.5608 2.3412,-3.64187 3.1216,-4.16213 4.16213,-3.38173 1.04053,0.8671 1.21395,0.69368 1.21395,-1.38737 -0.0867,-1.38739 -0.43355,-4.24885 -0.86711,-6.41662 -0.43355,-2.3412 -0.43355,-4.33555 0.0867,-4.85582 0.43356,-0.52026 0.52027,-2.68804 0.26014,-4.7691 -0.34685,-2.51462 -0.0867,-4.85581 0.78039,-6.85016 l 1.30067,-3.0349 0.0867,3.902 c 0.0867,4.59569 1.04052,6.3299 2.86145,5.63622 1.04053,-0.43356 1.38738,0.60698 1.82093,5.72292 0.52027,6.41661 1.82092,9.19136 3.1216,7.02359 0.78039,-1.30067 1.56079,0.43355 4.07542,8.49767 1.82092,5.89635 2.68803,6.93688 3.64185,4.42226 0.69369,-1.90764 0.7804,-1.90764 4.24885,1.38738 2.34118,2.16776 3.90198,4.68239 4.50896,7.02359 1.12724,4.07541 1.5608,4.33554 3.2083,2.16777 1.90764,-2.51462 1.5608,5.72292 -0.34684,8.5844 l -1.5608,2.34118 -5.11594,-2.16778 c -6.41661,-2.60132 -6.50333,-2.60132 -6.50333,0.0867 v 2.16778 l -4.50897,-2.2545 c -2.51461,-1.30066 -5.89634,-3.46843 -7.45714,-4.7691 -3.64186,-3.2083 -4.50897,-3.1216 -4.50897,0.17343 v 2.68804 l -6.85017,-6.15647 c -7.1103,-6.41662 -8.7578,-7.28373 -8.7578,-4.42227 0,1.5608 -0.0867,1.5608 -3.03489,-0.26013 -1.73421,-1.04054 -4.68239,-3.2083 -6.59003,-4.6824 -4.16213,-3.38172 -5.98306,-3.64186 -5.98306,-0.8671 0,1.90764 -0.26012,1.90764 -6.24319,1.6475 -4.42225,-0.17342 -6.85016,0.0867 -7.9774,0.8671 -1.47409,1.21397 -1.47409,1.30068 -0.0867,2.77476 0.86711,0.7804 1.21395,1.82094 0.78039,2.16778 -0.43355,0.34684 -2.60132,2.16776 -4.85581,3.90199 -4.7691,3.81527 -5.20266,5.37607 -1.6475,6.15647 l 2.4279,0.52027 0.60698,9.19137 c 0.26012,5.11596 0.69368,9.45149 0.95382,9.71162 0.26013,0.17344 1.12724,-0.17342 1.82093,-0.95382 1.21395,-1.21394 1.99435,-0.69368 8.41096,5.54951 3.90199,3.81528 7.8907,7.19701 8.84451,7.63055 2.08107,0.7804 3.902,-0.43354 3.902,-2.68803 0,-2.08107 0.34685,-2.08107 12.6598,0.43356 5.5495,1.21395 10.49203,1.99435 10.83887,1.73421 0.43356,-0.17342 0.52027,-0.95382 0.17343,-1.6475 -0.60698,-1.73424 0.34684,-1.64751 3.72857,0.52026 3.12159,1.90764 4.68239,4.0754 4.68239,6.3299 0,1.12725 -1.12724,1.38738 -6.06976,1.38738 -3.29503,0 -6.06978,0.26012 -6.06978,0.52026 0,0.26014 0.43356,1.21396 0.86711,2.16776 0.7804,1.4741 0.60697,1.64753 -1.47408,1.73424 -4.24885,0.17342 -6.67675,-0.26014 -9.10465,-1.47409 -1.30067,-0.69369 -3.38173,-1.21395 -4.59569,-1.21395 -2.08106,0 -2.25448,0.26013 -1.73421,2.5146 0.52026,2.51463 0.43355,2.60134 -1.90765,1.90766 -1.38737,-0.43356 -3.9887,-1.47409 -5.89635,-2.42791 -1.90763,-0.95382 -4.59567,-1.99435 -5.98305,-2.3412 -2.34119,-0.60697 -2.42791,-0.43355 -1.90764,1.5608 l 0.52027,2.25449 -3.902,-2.16778 c -2.16778,-1.12724 -5.5495,-3.29501 -7.45714,-4.85581 -3.46844,-2.77475 -3.64186,-2.77475 -4.85581,-1.12725 -0.69369,0.8671 -0.95383,2.51462 -0.69369,3.55515 0.43356,1.90765 0.43356,1.90765 -4.07542,0.52027 -2.51462,-0.69369 -5.37608,-1.82092 -6.3299,-2.51462 -2.4279,-1.7342 -3.81528,-1.5608 -3.29502,0.52027 0.60698,2.25448 0.17343,2.16777 -4.68239,-0.7804 -2.34119,-1.38737 -5.02923,-2.77475 -6.06976,-3.03487 -1.64751,-0.52028 -1.90765,-0.26015 -2.16778,2.6013 l -0.26013,3.20832 -2.16777,-3.29502 c -2.60133,-3.9887 -3.98871,-4.59568 -4.76911,-2.16777 -0.69369,2.16777 -2.16777,1.47407 -2.16777,-1.12723 -0.0867,-2.68805 -1.99435,-4.94254 -4.24884,-4.94254 -2.34119,0 -2.34119,-0.86711 0,-3.81528 2.51462,-3.20831 1.30067,-4.24884 -5.20266,-4.68238 -5.02923,-0.34686 -5.11594,-0.43357 -5.63621,-3.20832 -0.60698,-3.2083 -2.51462,-4.42226 -3.9887,-2.60133 -0.60698,0.69369 -2.08107,1.82095 -3.46844,2.42791 -2.16778,1.12724 -2.42791,1.04054 -3.98871,-1.30066 -0.86711,-1.30067 -2.08106,-2.4279 -2.68804,-2.4279 -0.60697,0 -1.90764,1.90763 -3.03488,4.24883 -1.64751,3.64187 -2.16777,4.16212 -3.46844,3.46843 -2.16777,-1.21396 -1.99435,0.52027 0.346845,3.55514 3.901995,4.85583 5.462795,7.37045 5.202655,8.41098 -0.34684,1.64752 3.98871,4.42226 11.79269,7.37042 7.1103,2.68805 7.37044,2.86147 5.11595,3.64187 -1.30066,0.52027 -2.34119,1.38738 -2.34119,1.99435 0,1.47408 7.54385,3.46844 15.52126,4.24884 3.55515,0.34684 7.19701,0.69369 8.23754,0.7804 1.04053,0.0867 3.81528,0.26014 6.24319,0.34684 3.90199,0.0867 4.42226,0.26013 4.33555,1.99435 -0.0867,1.64751 0.52026,1.99435 4.16212,2.60135 2.77475,0.34683 6.67675,0.1734 10.83887,-0.6937 3.64186,-0.607 8.06412,-1.21396 9.97176,-1.21396 2.77475,0 3.20831,0.17342 2.25449,1.30066 -2.08106,2.51462 -0.0867,2.94818 12.13953,2.68805 9.71163,-0.17343 12.13954,0 12.57309,0.95382 0.26014,0.69368 1.04054,1.04053 1.99436,0.7804 0.78039,-0.26014 2.68804,-0.69369 4.07542,-0.95383 4.94252,-0.69368 10.4053,-2.08104 14.2206,-3.38174 5.20265,-1.90762 6.15647,-1.7342 6.15647,0.7804 0,1.21397 0.34683,2.1678 0.69369,2.1678 1.47408,0 6.24318,-5.89636 8.84451,-11.099 1.47409,-2.9482 3.03489,-5.3761 3.38173,-5.3761 0.34684,0 1.5608,0.95383 2.68804,2.16778 1.04053,1.12724 2.3412,1.90764 2.77476,1.5608 0.8671,-0.43356 0.7804,-1.38738 -0.95383,-8.41098 -0.7804,-3.2083 -0.7804,-3.295 1.30067,-2.86145 3.38172,0.60698 3.2083,-0.69368 -0.34684,-3.12159 -5.4628,-3.81528 -12.48639,-6.50332 -18.55615,-7.1103 -5.98305,-0.60698 -7.1103,-1.38736 -4.42226,-2.94816 0.86711,-0.43357 1.30066,-1.04054 0.95381,-1.3874 -0.26013,-0.34683 -6.15647,-1.04052 -12.91993,-1.5608 -6.85017,-0.52025 -11.96611,-1.04052 -11.35913,-1.30065 2.08106,-0.69369 0.95382,-1.47409 -2.25449,-1.5608 -1.73422,-0.0867 -5.80963,-1.38737 -9.10465,-2.86145 l -5.80963,-2.68805 v -5.63621 c 0,-3.03489 0.43355,-5.80964 0.86711,-6.06977 0.52026,-0.26013 0.86711,0.17343 0.86711,1.12723 0,2.3412 0.78039,2.77476 3.38172,1.73423 1.21396,-0.43355 3.55515,-1.04053 5.11595,-1.30066 2.68804,-0.43357 2.86146,-0.34685 1.82094,1.38737 -1.5608,2.3412 -0.86712,2.77476 5.02923,3.1216 2.77475,0.17342 6.24319,0.60696 7.63057,1.12724 1.47408,0.43356 3.12159,0.60698 3.81527,0.34684 0.7804,-0.26012 0.95383,0.0867 0.52027,1.47408 -0.34684,1.04054 -0.17342,1.82094 0.34684,1.82094 0.52027,0 2.60133,0.7804 4.6824,1.64751 4.68239,2.16777 10.83887,3.81528 11.8794,3.12159 0.52026,-0.34684 0.60697,0.52026 0.34684,2.08106 -0.7804,3.55516 0.86711,4.07542 7.1103,2.2545 2.68804,-0.7804 5.02924,-1.21396 5.28938,-0.95383 0.26012,0.26013 1.90763,-0.26013 3.72856,-1.21395 l 3.29502,-1.64752 0.52026,2.51463 c 0.69369,3.81527 2.42791,3.2083 6.15648,-2.42791 1.90764,-2.68804 3.46844,-5.11595 3.64186,-5.28937 0.17342,-0.17342 0.95382,0.26015 1.82092,1.04053 2.2545,2.08107 2.94818,1.82092 2.42792,-0.86711 -0.17342,-1.38737 -0.60698,-4.24883 -0.95382,-6.41661 -0.52027,-3.90199 -0.43356,-3.9887 1.73422,-3.64186 3.90198,0.7804 2.68804,-2.16777 -4.59568,-11.0123 -1.64751,-1.90763 -2.51462,-3.46843 -1.99436,-3.46843 1.90765,0 0.86712,-2.25447 -1.38738,-3.29502 -5.11594,-2.25448 -16.7352,-11.53255 -16.7352,-13.26677 0,-0.34685 0.7804,-0.43356 1.7342,-0.17342 2.60134,0.69368 2.16779,-0.34686 -2.60132,-5.54951 -2.4279,-2.60133 -4.7691,-5.5495 -5.28937,-6.50332 -0.78039,-1.5608 -0.43355,-1.47409 3.03489,0.60697 4.42226,2.60134 5.37608,1.5608 1.90764,-2.08106 -1.12724,-1.30066 -2.68804,-3.29501 -3.55514,-4.68239 -1.21396,-1.90765 -1.30067,-2.34119 -0.26014,-2.34119 1.90764,0 7.63056,6.3299 7.63056,8.49767 0,1.04053 0.43356,1.90764 0.86711,1.90764 0.52027,0 0.86711,-1.30067 0.86711,-2.86147 l 0.0867,-2.77474 3.20831,3.46844 c 1.73422,1.90764 4.24884,4.8558 5.46279,6.50332 2.68805,3.46844 3.9887,3.03488 2.68805,-0.7804 l -0.86712,-2.51462 8.15082,2.86147 c 7.8907,2.77475 9.01795,2.77475 7.37044,-0.26014 -0.69369,-1.30066 -0.0867,-1.47408 5.80964,-1.56079 7.9774,-0.0867 10.05847,1.12724 5.98305,3.55515 -5.98305,3.46843 -8.49767,5.80963 -7.45713,7.02358 0.52025,0.60698 1.6475,1.21396 2.5146,1.38738 1.4741,0.26013 1.4741,0.52026 0.34685,3.72857 -1.73422,4.94252 -2.86145,12.57308 -1.90765,13.09336 0.43356,0.26012 1.30067,0.0867 1.90765,-0.43356 1.38738,-1.12724 2.94817,1.73422 7.02359,12.6598 2.60133,7.19701 3.90199,8.58438 3.90199,4.42226 v -2.77475 l 4.16213,4.07541 c 4.33554,4.24884 5.37608,4.42226 5.37608,0.86711 0,-3.03488 1.30066,-2.4279 4.7691,2.42791 2.08106,2.77474 3.72856,4.16214 4.50896,3.90199 0.86712,-0.34685 1.12725,0 0.95383,0.95383 -0.17343,0.78039 -2.60133,2.68802 -5.46279,4.24882 -7.1103,3.902 -12.31294,11.61928 -7.02359,10.2319 2.08107,-0.52026 2.16778,-0.43355 1.21395,1.99436 -0.60697,1.5608 -0.69368,4.16214 -0.26013,6.76344 0.60698,4.24885 0.60698,4.24885 2.08107,2.51463 1.47408,-1.82093 1.47408,-1.73423 4.42226,3.46844 1.5608,2.94817 3.64186,5.89633 4.50897,6.67673 0.86711,0.7804 1.56079,1.64752 1.56079,1.99437 0,1.30066 -3.81528,0.34683 -6.59003,-1.73422 -1.64751,-1.30065 -2.94817,-1.82095 -2.94817,-1.30065 0,0.52025 -1.47409,0.9538 -3.20831,0.9538 -1.82093,0 -3.90199,0.43356 -4.59568,0.8671 -1.12724,0.6937 -1.04053,0.95383 0.43356,2.08108 1.47407,1.04052 1.56079,1.47408 0.60697,3.46842 -0.95382,2.08108 -0.8671,2.2545 1.12724,2.2545 1.30066,0 2.16778,0.52027 2.16778,1.30066 0,0.95384 0.43355,1.04054 2.25448,0.43354 1.21396,-0.52025 2.60133,-0.60696 3.0349,-0.34682 0.52025,0.26012 1.38736,0 2.08105,-0.52028 1.12725,-0.9538 1.30065,-0.60697 1.30065,1.6475 0,1.4741 0.26015,2.68806 0.52028,2.68806 0.26012,0 1.99435,-1.21396 3.81528,-2.60133 3.03489,-2.3412 3.46844,-2.51463 4.16214,-1.21395 1.21394,2.16777 3.64185,0.86712 3.64185,-1.90765 0,-1.82093 0.34685,-2.16777 1.73422,-1.82093 3.38173,0.8671 2.77475,-1.38737 -1.82093,-5.98305 -3.98871,-4.07542 -4.33554,-4.68239 -2.86146,-5.11595 5.20266,-1.73422 5.28937,-1.82093 1.73422,-3.38173 -1.82093,-0.7804 -3.8153,-1.38737 -4.33555,-1.38737 -0.52027,0 -1.73422,-0.60698 -2.60133,-1.30067 -1.64752,-1.30066 -1.64752,-1.30066 0.17342,-1.30066 2.86146,0 2.3412,-1.47407 -1.47408,-3.98871 -3.902,-2.60132 -4.76911,-4.16212 -3.55516,-6.50332 1.12725,-1.99434 2.2545,-2.08106 3.29502,-0.26014 0.95382,1.73423 2.60133,0.95383 3.55515,-1.6475 0.69369,-1.73422 0.7804,-1.73422 2.08106,0.6937 1.12725,2.25447 1.38737,2.3412 1.90765,1.04052 0.60697,-1.38738 0.95382,-4.33555 1.21395,-9.10465 0.0867,-1.64751 0.43357,-1.82093 2.25447,-1.38737 3.1216,0.7804 2.77477,-1.30067 -0.8671,-6.06977 l -3.03488,-3.98871 h 2.16778 c 3.902,0 2.25448,-1.47408 -6.06977,-5.20266 -8.32425,-3.72856 -9.71163,-5.02923 -6.50333,-5.80963 2.86147,-0.7804 1.99436,-1.64751 -3.38172,-3.29503 -2.86146,-0.8671 -6.24318,-2.25447 -7.63058,-3.12158 -2.34118,-1.5608 -2.34118,-1.64752 -0.43354,-1.64752 2.77474,0 2.34119,-1.21394 -1.12724,-2.86145 -2.77475,-1.30067 -6.3299,-6.24319 -5.28937,-7.28372 0.26013,-0.26013 0.95382,0.52027 1.47408,1.82093 1.47409,3.2083 2.42791,2.77474 2.25449,-1.04053 -0.17342,-4.33555 1.04053,-12.13953 1.90764,-12.65981 0.43354,-0.26012 1.21394,0.0867 1.82094,0.7804 1.6475,1.99436 2.86145,1.5608 5.02923,-1.73422 1.04053,-1.6475 1.90764,-3.2083 1.90764,-3.38172 0,-0.26014 0.43355,-1.47408 0.86711,-2.77475 0.86712,-2.25449 0.95382,-2.25449 2.60132,-0.7804 2.77476,2.51462 3.46844,0.52027 1.73423,-4.59568 -1.47409,-4.59568 -1.21396,-5.20265 1.82093,-3.64186 1.30066,0.78039 1.6475,0.60697 1.6475,-0.60699 0,-1.6475 -8.67109,-7.63056 -12.48636,-8.58438 -1.82095,-0.43355 -2.1678,-0.86711 -1.73423,-2.60132 0.34683,-1.4741 0.17343,-2.08107 -0.60697,-2.08107 -1.73423,0 -10.40533,4.16213 -12.31297,5.80964 -1.99435,1.90763 -2.86146,0.78039 -1.5608,-1.99436 1.64751,-3.64186 0.26014,-3.55515 -2.77475,0.0867 -1.47408,1.90765 -3.64186,4.42226 -4.68238,5.63622 l -1.90765,2.16776 -0.0867,-1.99434 c 0,-2.42791 -0.34684,-2.42791 -3.81528,0.26014 -3.38173,2.60132 -4.33556,2.77474 -3.1216,0.52026 0.43356,-0.95382 0.86711,-1.90764 0.86711,-2.25449 0,-0.26013 -3.38173,-0.26013 -7.54385,0 -5.5495,0.43356 -7.28372,0.34685 -6.3299,-0.34684 1.04053,-0.7804 1.12724,-1.04053 0.0867,-1.73423 -0.60698,-0.43354 -1.82093,-0.60697 -2.60133,-0.52026 -0.7804,0.0867 -0.8671,0 -0.26013,-0.17342 0.60697,-0.26012 0.95383,-1.04052 0.86711,-1.82092 -0.17343,-1.12725 0.52026,-1.5608 3.46844,-1.73423 3.46843,-0.26013 4.59568,-1.21395 2.77475,-2.34119 -1.64751,-0.95382 -0.86711,-1.90764 2.86146,-3.46844 4.68239,-2.08106 4.68239,-2.08106 3.2083,-3.03489 -1.04053,-0.69368 -0.60697,-1.47408 2.42791,-4.42225 3.55516,-3.38173 4.50896,-5.11595 2.86146,-5.11595 -0.52026,0 -0.17342,-1.64751 0.7804,-3.72857 3.03488,-7.02359 3.1216,-11.18572 0.17342,-8.23754 -0.7804,0.78039 -1.04052,-0.0867 -1.04052,-3.98871 0,-4.33555 -0.34685,-5.28937 -2.42792,-7.28372 -1.30066,-1.30066 -3.29501,-3.64186 -4.42225,-5.20266 -2.25449,-3.2083 -3.20831,-3.46844 -3.98871,-1.12724 -0.43355,1.56079 -0.7804,1.38738 -3.72857,-1.30066 -1.73422,-1.64751 -3.81528,-3.03489 -4.50897,-3.03489 -2.68804,-0.34684 -3.03488,-0.43356 -3.9887,-1.04053 -0.52028,-0.26013 -1.21396,-1.73422 -1.47408,-3.20831 -0.34686,-1.47408 -0.86712,-2.51462 -1.21396,-2.4279 -0.43356,0.17342 -0.7804,0 -0.86711,-0.43356 -0.69369,-1.82093 0,-3.03488 2.08107,-3.9887 2.25447,-1.04053 2.34118,-1.21396 0.8671,-2.25449 -1.4741,-1.04053 -1.38738,-1.21395 1.04053,-1.73422 1.38737,-0.26013 3.9887,-0.34684 5.72292,-0.0867 2.25449,0.34685 3.03489,0.17343 3.03489,-0.69368 0,-1.38738 4.7691,-2.16778 10.57873,-1.82093 4.42226,0.34684 6.59003,-1.04053 3.20831,-1.99436 -1.64751,-0.43355 -0.95382,-0.7804 3.1216,-1.64751 2.86146,-0.52026 6.24318,-1.04053 7.63056,-1.12724 2.51462,0 2.94816,-0.7804 1.38738,-2.34119 -0.69369,-0.69369 1.38738,-1.73423 7.80398,-3.81529 8.06412,-2.68804 10.83887,-4.24884 7.37043,-4.24884 -2.25448,0 -0.17343,-1.99435 6.67675,-6.50332 6.3299,-4.16212 7.37042,-5.63621 3.81528,-5.63621 -2.60133,0 -2.68804,-0.7804 -0.43356,-7.45714 2.60133,-7.71728 2.2545,-9.71163 -1.04053,-6.76346 -1.47407,1.38738 -1.6475,1.30067 -2.86147,-1.47408 -2.34118,-5.02924 -6.3299,-11.53256 -7.2837,-11.8794 -0.52027,-0.17343 -0.95383,0.69368 -0.95383,1.99435 0,2.25448 -0.26013,2.08106 -5.72292,-2.948175 -3.20831,-2.861465 -6.06977,-5.029235 -6.50332,-4.769105 -0.43356,0.260135 -0.7804,1.38738 -0.7804,2.60133 0,2.08106 -0.0867,2.08106 -5.80963,-1.82093 -3.2083,-2.16777 -6.3299,-3.90199 -6.93689,-3.90199 -0.69368,0 -1.12724,1.21395 -1.12724,3.2083 l -0.0867,3.29502 -2.34119,-2.60133 c -1.30067,-1.47409 -3.98871,-3.90199 -6.06977,-5.46279 l -3.64186,-2.94817 v 2.25448 c 0,3.034886 -0.86711,2.86146 -4.33554,-0.7804 -1.64752,-1.647505 -3.20832,-3.03488 -3.64187,-3.03488 -0.34685,0 -0.95383,1.21395 -1.38738,2.68804 l -0.69368,2.68804 -2.68804,-2.254486 c -3.03489,-2.514614 -4.59569,-2.861464 -4.59569,-0.953824 0,0.69369 -0.34684,1.30067 -0.78039,1.30067 -0.43355,0 -1.21395,-0.60698 -1.82093,-1.30067 -1.47409,-1.82093 -2.60133,-1.647505 -2.60133,0.43356 0,1.99435 -0.34685,2.08106 -2.68804,0.7804 -3.38173,-1.73422 -3.55515,-0.260136 -0.34685,3.90199 2.51462,3.29502 2.94818,4.42226 1.99436,4.94253 -0.60698,0.43355 -1.38738,0.78039 -1.73422,0.78039 -1.5608,0 -0.52027,1.73422 1.30066,2.08107 6.85017,1.38737 6.76346,1.38737 6.2432,3.2083 -0.60699,1.73422 -0.43357,1.82093 6.15647,1.30067 5.5495,-0.43356 7.45713,-0.26014 9.88505,1.04053 2.77475,1.30066 3.03488,1.73422 2.77475,4.68239 l -0.26013,3.20831 2.51461,-1.30067 c 4.07542,-1.99435 14.04718,-0.34684 14.04718,2.3412 0,1.38737 0.34684,1.47408 2.25449,0.7804 2.86146,-1.12725 5.89634,-1.12725 9.97176,0.17342 3.90199,1.12724 4.33554,2.16777 1.12724,2.60133 l -2.16778,0.26013 3.03489,3.64186 c 1.73422,1.90764 3.12159,4.24884 3.12159,5.02924 0,1.21395 -0.26012,1.12724 -1.56079,-0.43356 -1.90765,-2.4279 -3.29503,-1.82093 -4.07543,1.73422 -0.7804,3.72857 -2.16776,3.20831 -2.16776,-0.86711 0,-1.90764 -0.34684,-3.46844 -0.69369,-3.46844 -0.43355,0 -1.5608,1.5608 -2.68805,3.46844 -2.60132,4.7691 -3.90198,5.37608 -3.2083,1.5608 0.26014,-1.64751 0.26014,-3.20831 0,-3.55515 -0.34684,-0.26013 -2.60133,1.5608 -5.02923,4.16213 -4.59568,4.85581 -6.50333,6.06976 -4.85582,3.12159 1.21395,-2.3412 1.12725,-2.68804 -0.7804,-2.68804 -0.86711,0 -3.46843,1.64751 -5.72292,3.64186 -2.3412,2.08106 -5.11595,3.72857 -6.67674,3.90199 -1.38739,0.17343 -3.55515,1.04054 -4.85582,1.99435 -1.30067,1.12725 -2.51462,1.4741 -3.03487,0.95383 -1.04054,-1.04053 -4.42227,0.7804 -8.23755,4.42226 -1.64751,1.56079 -3.81529,2.77475 -4.76911,2.86146 -1.21394,0 -2.08106,1.21395 -3.38172,4.50897 -1.64752,4.50897 -2.68804,5.46279 -3.72857,3.72857 -1.21395,-1.99435 -2.16778,-0.60698 -2.16778,2.94817 0,2.25449 -0.43355,3.98871 -1.04053,4.16213 -1.47409,0.52026 0.60698,7.19701 2.68804,8.6711 1.47409,1.04053 1.47409,1.38737 0.43355,2.86146 -0.69368,0.86711 -1.21395,2.25448 -1.21395,3.12159 0,1.21396 0.60698,1.38738 3.90199,1.04053 2.08107,-0.26013 4.42226,-0.26013 5.20266,0.0867 1.21396,0.43356 1.21396,0.69369 0,2.60133 l -1.38737,2.08107 4.85581,0.60697 c 2.68803,0.34685 5.80963,0.60698 7.02359,0.60698 2.34119,0 2.77474,1.30067 0.7804,2.08107 -1.90764,0.7804 -0.60698,2.25448 1.47408,1.5608 1.99436,-0.60699 9.36479,1.21394 9.36479,2.34119 0,0.43355 -0.60698,0.78039 -1.30067,0.78039 -0.69368,0 -1.30066,0.34685 -1.30066,0.86712 0,0.43355 0.52026,0.8671 1.21395,0.8671 1.04053,0 6.59004,5.4628 6.59004,6.59004 0,0.17342 -0.95383,-0.26014 -2.16779,-1.04054 -2.4279,-1.5608 -5.80962,-1.04053 -4.0754,0.6937 0.60697,0.60697 1.04053,1.6475 1.04053,2.4279 -0.0867,1.04053 -0.17343,1.04053 -0.95383,-0.26013 -1.5608,-2.60133 -2.3412,-1.5608 -1.90763,2.60133 0.26013,3.29501 0.17343,3.81528 -0.60697,2.60133 -1.4741,-2.3412 -2.60134,-1.73423 -2.60134,1.56079 0,2.94818 -1.04053,3.98871 -2.16777,2.16778 -1.12725,-1.82093 -2.16779,-0.6937 -2.16779,2.4279 0,4.16213 -0.78039,5.02924 -2.34118,2.77475 -0.69369,-0.95382 -1.73422,-1.73421 -2.42792,-1.73421 -0.9538,0 -0.9538,0.52026 0.17343,2.68804 1.21395,2.51462 1.21395,2.77475 -0.43355,4.42225 -5.11595,5.20267 -15.001,-3.9887 -25.75316,-24.01893 -3.90199,-7.28372 -13.00664,-21.67774 -15.69468,-24.79934 -1.64751,-1.90764 -1.5608,-2.25448 1.04053,-2.86146 1.38737,-0.34684 2.08106,-1.04053 1.82093,-1.73422 -0.34685,-0.7804 0.52026,-1.38738 2.68804,-1.73422 1.73422,-0.26013 3.81528,-0.95382 4.50896,-1.38737 1.12725,-0.7804 0.95383,-1.12725 -0.7804,-2.51462 l -2.08105,-1.5608 2.25448,-0.60697 c 2.86147,-0.6937 9.53821,-7.0236 9.10465,-8.49768 -0.26013,-0.60698 -1.30066,-0.95382 -2.42791,-0.86711 -1.90764,0.34684 -1.99435,0.17342 -0.8671,-1.21395 0.69368,-0.95382 1.82093,-2.25449 2.51461,-2.94818 3.1216,-3.29501 6.93688,-10.49202 7.45715,-14.04717 0.78039,-4.85581 -0.0867,-6.76346 -1.82093,-4.24884 -1.38738,1.99435 -10.40532,9.01794 -12.74652,9.88505 -0.95382,0.34684 -0.17342,-1.04053 1.99436,-3.55515 1.90764,-2.3412 3.46843,-4.59568 3.46843,-5.02924 0,-0.52026 1.12725,-2.68803 2.51463,-4.94252 4.16212,-6.50332 5.5495,-14.48073 2.4279,-14.48073 -0.52027,0 -2.25449,1.21395 -3.81528,2.77475 -3.03489,2.86146 -3.55515,2.42791 -1.90764,-1.64751 1.90764,-4.7691 2.34119,-8.15083 1.47408,-11.35913 -1.21396,-4.42226 -2.16777,-5.20266 -3.2083,-2.51462 -1.04053,2.60133 -7.97741,10.14518 -9.4515,10.14518 -0.69369,0 -0.7804,-0.95382 -0.34684,-2.86146 0.34684,-1.47409 0.60698,-5.02924 0.60698,-7.71728 0,-4.50897 -0.26014,-5.28937 -2.77476,-7.803984 -1.56079,-1.474086 -3.03488,-2.601326 -3.2083,-2.341196 -0.26014,0.26013 -0.69369,3.38173 -1.04054,6.93688 -0.34684,3.55515 -1.21395,7.54385 -1.99435,9.01794 l -1.30066,2.60133 -0.60698,-6.3299 c -0.7804,-8.150835 -1.21395,-9.79834 -3.46844,-12.573094 -1.6475,-2.167776 -3.38172,-3.034886 -3.38172,-1.82093 z"
             fill="#000000"
             id="path14321" /></g><g
           id="Graphic_69"
           style="fill:#00ff00;fill-opacity:1"><path
             d="m 159.1443,68.40807 c 1.5608,3.72857 1.6475,20.89734 0.0867,24.5392 -0.7804,1.90764 -2.16777,3.03489 -4.8558,3.98871 l -3.81529,1.38737 -0.34684,-6.15648 c -0.26014,-5.63621 0,-6.59003 2.51462,-10.92558 1.99435,-3.381725 3.03488,-6.41661 3.38172,-10.23189 0.34685,-2.948174 0.86711,-5.37608 1.21396,-5.37608 0.34684,0 1.21395,1.30066 1.82093,2.77475 z"
             fill="#f3f3f3"
             id="path14324"
             style="fill:#00ff00;fill-opacity:1" /></g><g
           id="Graphic_68"
           style="fill:#00ff00;fill-opacity:1"><path
             d="m 218.02104,71.70309 c 0.52026,0 0.86711,-1.21396 0.86711,-2.60133 0,-3.1216 1.04053,-3.29502 3.20831,-0.69369 1.47408,1.82093 4.7691,4.16213 5.80964,4.16213 0.26012,0 0.52026,-0.86711 0.69368,-1.907645 0.26012,-1.82093 0.60698,-1.647505 4.24884,1.907645 4.85581,4.59568 7.54385,6.93687 8.23754,6.93687 0.26014,0 0.17342,-1.82093 -0.17342,-3.9887 -0.43356,-3.38173 -0.34684,-3.901995 0.60696,-3.38173 2.3412,1.38738 9.88506,6.76346 11.27244,7.8907 2.08106,1.82093 2.68804,1.47409 2.08106,-1.38738 -0.34684,-1.47408 -0.26013,-2.601325 0.17342,-2.601325 0.7804,0 6.76346,5.549505 9.53821,8.931225 2.51462,2.94818 3.55515,2.94818 3.12159,-0.08671 l -0.43355,-2.34119 1.73423,2.68804 c 0.9538,1.38737 2.5146,4.50897 3.55514,6.76345 1.30066,3.03489 2.16776,4.07542 3.12159,3.64186 1.5608,-0.60697 1.12724,2.16778 -1.38737,8.06412 -2.08106,4.68239 -2.08106,4.42226 0.78039,4.42226 l 2.3412,0.0867 -3.12159,1.90764 c -5.11596,3.1216 -10.31861,7.63057 -10.31861,8.75781 0,0.60698 -2.77475,1.90764 -6.24319,2.94817 -3.46844,1.04053 -7.45714,2.86147 -8.84452,4.07542 -1.38737,1.21395 -3.12159,2.16777 -3.90199,2.16777 -3.12159,0 -7.8907,1.90764 -7.8907,3.03489 0,0.95382 -1.12725,1.30066 -4.50897,1.30066 -2.4279,0 -6.41661,0.60698 -8.84452,1.30067 -2.4279,0.69368 -5.89634,1.47408 -7.71726,1.73421 -3.1216,0.52027 -5.4628,3.03489 -3.46845,3.64186 0.60698,0.26014 0.60698,1.12725 -0.26013,2.68804 -0.95382,1.90765 -0.95382,3.1216 -0.17342,5.63622 0.52026,1.82093 1.38737,3.12159 1.90764,2.94817 1.04053,-0.34684 4.85581,3.90199 4.85581,5.37608 0,0.52027 0.43355,0.95382 0.86711,0.95382 0.52027,0 0.86711,-0.7804 0.86711,-1.73422 0,-2.60133 1.5608,-2.08106 5.37608,1.73422 3.9887,3.9887 5.02924,4.24884 5.02924,1.47409 0,-1.82093 0.0867,-1.73422 2.16777,0.69368 1.12724,1.38738 2.08106,3.64187 2.16777,4.94253 0,1.30067 0.43357,2.60133 0.86711,2.86147 0.52026,0.26012 0.86711,-0.0867 0.86711,-0.7804 0,-0.7804 0.34685,-1.38738 0.7804,-1.38738 1.21395,0 1.90765,4.07541 1.38738,7.28372 -0.43356,1.99436 -0.17343,3.29501 0.86711,4.24884 1.30066,1.30066 1.21396,1.73422 -0.52027,5.5495 -1.12724,2.34119 -1.99435,4.85582 -1.99435,5.72292 -0.0867,1.38738 -2.42792,4.07542 -8.49768,9.97176 -1.38737,1.30067 -2.4279,2.77475 -2.4279,3.29502 0,0.52026 -1.5608,1.21395 -3.46844,1.5608 -1.82093,0.26012 -3.72857,1.04052 -4.07542,1.6475 -0.34684,0.60698 -1.73422,1.5608 -3.03488,2.08107 -3.2083,1.47408 -3.03488,2.68804 0.43355,3.03488 1.99435,0.17342 2.77475,0.69369 2.68805,1.73422 -0.0867,1.21395 0.60697,1.5608 3.46843,1.73422 4.85582,0.17343 5.5495,0.17343 9.88505,-0.60697 4.24884,-0.7804 4.68239,0.0867 1.64752,3.38172 -1.82094,1.90764 -2.2545,2.08106 -6.1565,1.30066 -2.34118,-0.43355 -4.42225,-0.60698 -4.68238,-0.34684 -0.69369,0.60698 3.38173,1.90764 8.32425,2.60133 3.55515,0.43355 4.50897,0.34684 4.50897,-0.60697 0,-0.6937 1.64751,-2.3412 3.55516,-3.55516 l 3.64185,-2.4279 -0.52025,2.68804 c -0.34686,1.38737 -0.26015,2.60132 0.0867,2.60132 0.34684,0 2.4279,-2.08106 4.6824,-4.50897 2.86145,-3.29501 3.90198,-3.9887 3.55514,-2.68803 -0.60698,2.60132 0,2.51461 4.33556,-0.52027 4.24883,-2.86146 8.8445,-5.28937 10.05846,-5.28937 0.43354,0 0.60698,0.7804 0.34684,1.73422 -0.26013,1.12724 0,1.73422 0.6937,1.82092 3.1216,0.26014 7.8907,1.64752 9.19135,2.77476 0.60698,0.43356 0.86711,1.64751 0.60698,2.77474 -0.26013,1.12725 0.0867,3.20832 0.86711,4.5957 1.82093,3.46843 1.73422,3.72856 -0.52027,3.2083 -1.73422,-0.43356 -2.16777,0 -3.55515,3.64186 -0.78039,2.25448 -2.08106,4.85581 -2.77475,5.80964 -1.12724,1.5608 -1.30067,1.47408 -3.64187,-1.30067 -1.30065,-1.5608 -2.4279,-3.29503 -2.4279,-3.72857 0,-0.52026 -1.04053,-0.86711 -2.16777,-0.7804 -1.21395,0.0867 -1.73423,-0.0867 -1.12723,-0.26013 0.60697,-0.26013 1.90763,-1.82093 2.94816,-3.46843 2.51462,-4.16214 1.21396,-5.54951 -3.29501,-3.55516 -1.82093,0.7804 -4.24885,1.5608 -5.46279,1.64751 -1.82093,0.26013 -2.16778,0.69368 -1.99436,2.77475 l 0.17343,2.51461 -6.41663,-0.43355 c -5.11593,-0.34684 -6.5033,-0.17342 -6.5033,0.7804 0,0.60698 -0.52027,1.12724 -1.21396,1.12724 -1.73422,0 -6.67674,-1.6475 -9.53821,-3.2083 -1.90763,-1.04054 -2.60133,-1.12725 -3.12159,-0.26014 -0.43356,0.7804 -1.64751,0 -3.902,-2.51462 -1.90764,-2.08106 -3.90199,-3.55514 -4.7691,-3.38172 -0.7804,0.17342 -2.86146,-1.04053 -4.68239,-2.60132 -3.1216,-2.68805 -5.98305,-3.55516 -6.93688,-1.99436 -0.26013,0.34684 0.26013,2.08106 1.12724,3.81528 l 1.64751,3.12159 -1.90764,-0.95381 c -0.95382,-0.60698 -2.34119,-0.95383 -2.86146,-0.86712 -0.60698,0.17342 -1.12724,-0.34684 -1.12724,-1.12724 0,-0.69369 -0.43356,-1.30066 -0.95382,-1.30066 -0.95382,0 -0.60698,1.82092 1.47408,6.67674 1.12725,2.77475 2.77476,4.16213 1.73422,1.5608 -0.86711,-2.3412 0.17342,-1.38738 2.77475,2.34119 1.38739,2.08107 2.34119,4.16213 2.16778,4.76911 -0.78039,2.08106 4.16212,7.71728 11.18571,12.91993 3.9887,2.94817 7.1103,5.80963 6.93688,6.3299 -0.0867,0.60698 1.90764,3.46845 4.59568,6.3299 2.60134,2.94817 4.7691,5.72292 4.7691,6.15648 0,0.43355 -1.04053,0.52027 -2.25448,0.26013 -1.99435,-0.52026 -2.16778,-0.34684 -1.64751,0.95382 0.34683,0.86712 0.86711,3.64186 1.12723,6.24319 0.43357,4.50897 0.34686,4.59568 -1.47407,3.64186 -1.64751,-0.95383 -1.90765,-0.7804 -2.3412,1.38737 -0.26013,1.30067 -1.82093,3.9887 -3.46843,5.89635 l -2.94818,3.46845 v -2.86147 c 0,-1.47409 -0.26013,-2.77475 -0.60698,-2.77475 -0.26014,0 -2.94817,0.95382 -5.80964,2.08106 -6.67674,2.60133 -13.96046,3.81528 -13.35348,2.08106 1.99435,-5.11594 1.90764,-5.28936 -1.12724,-4.6824 -4.50898,0.7804 -15.52127,-3.12158 -15.52127,-5.46278 0,-1.12724 -1.38737,-1.73422 -5.80963,-2.68804 -3.20831,-0.60698 -7.1103,-1.12724 -8.6711,-1.04053 -3.03488,0.0867 -3.46844,-0.60698 -1.99435,-3.38173 0.86711,-1.47408 0.60697,-1.64752 -1.90764,-1.64752 -1.56079,0.0867 -4.33555,0.607 -6.06977,1.21397 -3.12159,1.12723 -3.2083,1.12723 -4.16212,-1.30067 -0.60698,-1.30066 -1.64751,-2.4279 -2.42791,-2.3412 -0.86711,0 -2.34119,-0.26012 -3.29502,-0.60697 -1.30067,-0.43355 -1.99435,-0.17343 -2.34119,1.04053 -0.34685,0.86711 -1.21396,2.51462 -1.99436,3.72857 -1.04052,1.5608 -0.69368,1.38737 1.30067,-0.69368 3.72857,-3.902 5.63621,-3.72857 4.94252,0.43355 -0.26013,1.82093 -0.52026,4.16213 -0.52026,5.20266 0,1.21394 -0.52027,1.99434 -1.30067,1.99434 -1.99435,0 -1.56079,1.4741 1.12725,3.29503 3.38172,2.51462 10.66544,6.24319 11.8794,6.24319 0.60697,0 1.30067,0.78038 1.56079,1.73422 0.43356,1.56079 1.21396,1.73422 7.28373,1.82093 3.72857,0 7.54385,0.17343 8.49767,0.34683 0.95382,0.26014 3.81528,0.43357 6.41661,0.52028 3.90199,0.17342 4.42227,0.34684 3.20831,1.21395 -0.7804,0.60697 -1.38738,1.47407 -1.38738,2.08107 0,0.52026 -0.69369,0.9538 -1.47408,1.04053 -0.86711,0 0.17342,0.60697 2.34119,1.30067 4.85582,1.47408 5.37608,1.47408 2.60133,-0.0867 -2.08106,-1.12724 -1.99435,-1.12724 1.73422,-0.69368 6.06977,0.69368 13.52691,2.68803 17.34218,4.59567 3.46845,1.82093 4.50898,2.86146 2.2545,2.42791 -1.73422,-0.34684 -1.82093,0.17342 -0.26014,3.72857 0.69369,1.73422 1.5608,3.9887 1.90764,5.11595 l 0.60698,1.99435 -2.60133,-1.90765 c -3.12159,-2.16777 -4.50897,-2.3412 -4.50897,-0.52026 0,0.7804 -1.04053,3.38173 -2.25448,5.89636 -4.24884,8.32424 -7.28372,11.53255 -7.28372,7.54384 0,-2.34119 -1.38738,-2.25448 -10.57874,0.86711 -7.45714,2.51462 -14.56744,3.38173 -14.56744,1.82095 0,-0.43357 -5.5495,-0.607 -12.74651,-0.34686 -12.6598,0.52026 -12.83323,0.43356 -11.27243,-1.21394 0.7804,-0.95384 1.47409,-1.99437 1.47409,-2.2545 0,-0.95382 -7.71728,-0.6937 -15.60798,0.52027 -4.07541,0.69368 -9.01794,1.04053 -11.099,0.78039 l -3.72857,-0.34684 1.90764,-2.08106 c 1.04053,-1.12726 1.5608,-2.08106 1.12724,-2.16776 -0.43355,0 -3.29501,0 -6.41661,0.0867 -7.19701,0.1734 -23.58538,-1.5608 -26.70697,-2.68805 l -2.3412,-0.95382 2.94817,-1.21395 c 1.64751,-0.69368 2.77475,-1.38738 2.60133,-1.56078 -0.17342,-0.17344 -4.07541,-1.82095 -8.58438,-3.55517 -11.18572,-4.33553 -11.61927,-4.59568 -10.31861,-6.15648 0.60698,-0.78039 0.69369,-1.21395 0.08671,-1.21395 -0.52026,0 -2.341195,-1.4741 -4.07541,-3.2083 -2.68804,-2.77476 -3.03489,-3.46844 -2.51462,-6.2432 0.34684,-1.7342 1.12724,-4.24883 1.82093,-5.5495 l 1.21395,-2.4279 2.25449,2.86146 c 1.30066,1.5608 2.4279,2.94817 2.514615,3.12159 0.08671,0.17343 1.300665,-0.95382 2.774755,-2.4279 3.64186,-3.55515 5.20265,-3.38173 5.89634,0.69368 l 0.52027,3.29502 4.59568,-0.34685 c 5.28937,-0.43355 6.3299,0.52027 4.24884,3.72858 -1.73422,2.60132 -1.04054,4.7691 1.38737,4.7691 1.5608,0 1.64751,0.26012 0.7804,1.82092 -0.86711,1.73423 -0.7804,1.82094 0.7804,1.4741 1.47408,-0.43356 1.99435,0.0867 2.77475,2.4279 1.21395,3.46844 1.38737,3.55515 3.38172,1.12725 l 1.5608,-1.90765 1.99436,2.94818 c 3.64186,5.20266 5.5495,5.63622 5.02923,1.21395 -0.43355,-3.9887 0.86711,-3.9887 7.80399,0.43357 2.94817,1.90763 5.63621,3.46843 5.89634,3.46843 0.34685,0 0.26014,-0.95383 0,-2.16778 -0.60697,-2.51462 -0.60697,-2.60133 2.60133,-0.86711 1.38738,0.69369 3.1216,1.30066 3.81529,1.30066 0.78039,0 2.25448,0.607 3.29501,1.3874 2.77475,1.90762 3.902,0.78038 3.1216,-3.38175 l -0.52027,-3.55515 1.99435,1.4741 c 5.20266,3.64185 16.5618,10.2319 16.99535,9.79833 0.26013,-0.17343 -0.17342,-1.30066 -0.95382,-2.42791 -2.08106,-3.03488 -1.64751,-3.46842 1.90764,-1.90762 7.8907,3.46842 13.52691,5.46277 13.87376,5.11593 0.26013,-0.26013 0,-1.38738 -0.52026,-2.60133 -1.64752,-3.64186 -1.21396,-3.902 3.12159,-1.99435 2.60132,1.21395 5.72291,1.82093 8.58438,1.82093 5.80963,-0.17342 6.93688,-0.7804 4.85581,-3.03488 -1.56079,-1.73422 -1.56079,-1.73422 3.38173,-1.4741 3.98871,0.26014 5.37609,0 7.54386,-1.6475 3.03488,-2.2545 3.72857,-4.94252 1.04053,-4.0754 -1.12724,0.34683 -1.82093,0 -2.16778,-1.04055 -0.60697,-1.82093 -6.85016,-5.89635 -10.23189,-6.76345 -2.51462,-0.60698 -3.12159,0.26013 -1.38738,1.99435 1.73422,1.73422 0.52027,1.73422 -6.24318,0.0867 -3.55515,-0.86711 -8.75781,-1.82093 -11.44585,-2.16776 l -5.02924,-0.607 v 2.77476 c 0,1.47409 -0.34684,2.68804 -0.86711,2.68804 -0.43355,0 -4.42226,-3.46844 -8.7578,-7.804 -4.42227,-4.24882 -8.32426,-7.54384 -8.84452,-7.197 -1.5608,0.95382 -2.3412,-1.99435 -2.3412,-9.5382 v -7.54386 h -2.60133 c -1.38737,0 -2.60132,-0.26014 -2.60132,-0.69368 0,-0.34686 2.16777,-2.3412 4.7691,-4.33556 4.7691,-3.72856 5.46279,-4.8558 3.90199,-5.80963 -0.43356,-0.26013 -0.86711,-0.95382 -0.86711,-1.47407 0,-0.607 2.51462,-0.7804 7.80399,-0.52028 7.37043,0.43356 7.80398,0.34685 7.37043,-1.12724 -0.69369,-2.16778 1.47408,-2.16778 3.46844,0 1.38737,1.64752 11.27242,7.8907 12.31296,7.8907 0.26013,0 0.17342,-1.04053 -0.17343,-2.3412 -0.52027,-2.25448 -0.43355,-2.25448 3.03489,0.95382 1.99434,1.73422 4.59568,4.33555 5.89634,5.72293 1.30067,1.47407 3.29502,2.68804 4.50897,2.77475 1.82093,0.26012 2.08106,-0.0867 1.90764,-1.73422 -0.26013,-1.90766 -0.17341,-1.82093 3.64186,0.69368 5.02923,3.46844 11.53256,6.3299 12.74651,5.63622 0.43356,-0.34686 0.60698,-1.30066 0.34685,-2.25449 -0.52027,-1.5608 -0.34685,-1.5608 3.46844,0.17343 4.33555,1.90764 11.70598,1.99435 12.39966,0.1734 0.17343,-0.69367 -0.43355,-1.12723 -1.56079,-1.12723 -1.5608,0 -1.64751,-0.26013 -0.7804,-1.82093 1.99436,-3.90199 -0.52027,-14.65414 -2.68804,-11.18571 -0.43356,0.69369 -0.8671,1.04053 -1.04053,0.86711 -0.17342,-0.26014 -0.95382,-1.73422 -1.90764,-3.38174 -1.99436,-3.64185 -6.50333,-7.80398 -8.49768,-7.8907 -1.30066,0 -2.42791,-2.34118 -5.46279,-11.01228 -0.17342,-0.60698 -1.12724,-1.12724 -1.99436,-1.12724 -1.82092,0 -2.77474,-3.38173 -2.77474,-9.79834 0,-2.94817 -0.17342,-3.29502 -1.73422,-2.77474 -1.5608,0.52025 -1.73422,0.1734 -1.73422,-3.8153 0,-6.85016 -2.16777,-6.76345 -4.94252,0.34685 -0.95383,2.51462 -0.95383,2.51462 -1.04054,-1.73422 -0.0867,-3.12159 -0.34684,-3.9887 -0.95382,-3.03488 -0.95382,1.47408 -0.86711,11.96611 0.0867,13.87375 1.04053,2.16778 1.90765,11.27243 1.04053,11.27243 -0.34684,0 -1.82093,1.82093 -3.2083,3.9887 -2.16778,3.46844 -2.68804,3.81527 -3.20831,2.42791 -0.34684,-1.12724 0.0867,-2.3412 1.38738,-3.81528 2.68805,-2.94818 4.07541,-5.89636 3.38173,-7.02359 -0.26014,-0.52027 -1.21396,0.52026 -2.08107,2.4279 -1.47408,3.20831 -4.42226,6.3299 -5.98305,6.3299 -0.43356,0 -0.95382,0.26013 -1.12725,0.60698 -0.43355,1.12725 -7.45714,6.3299 -8.41096,6.3299 -0.52026,0 -0.7804,-1.47408 -0.60698,-3.46845 l 0.26013,-3.46843 h -7.28371 c -4.76911,0 -7.1103,0.34685 -6.76346,0.86711 0.34684,0.52027 1.04053,0.86712 1.5608,0.7804 0.60697,-0.0867 3.38173,0 6.24319,0.0867 l 5.20266,0.26013 -5.63622,0.69368 c -3.12159,0.34685 -7.71727,1.04054 -10.23189,1.47409 -4.24884,0.6937 -4.50897,0.6937 -4.07542,-0.7804 1.12725,-3.46844 -3.9887,-0.52026 -9.79833,5.6362 -2.51462,2.68805 -4.76911,4.85583 -5.02924,4.85583 -0.17342,0 -0.34684,-0.60698 -0.34684,-1.30067 0,-0.69368 -0.34685,-1.30066 -0.86711,-1.30066 -0.43356,0 -0.86711,0.6937 -0.86711,1.6475 0,1.82094 -7.71728,10.49203 -9.36479,10.49203 -0.60697,0 -1.04053,-0.60697 -1.04053,-1.30066 0,-1.73422 -0.43355,-1.64751 -3.29502,0.43356 -4.07541,2.94817 -17.16877,4.85581 -16.21495,2.34119 0.34685,-0.69369 -0.7804,-1.04052 -3.72857,-1.12724 -4.42226,-0.17342 -8.15083,-1.73422 -12.83322,-5.20266 -1.47409,-1.12724 -3.03488,-2.08106 -3.38173,-2.08106 -1.12724,0 -7.37043,-4.42226 -7.37043,-5.20266 0,-1.5608 4.94253,-1.5608 7.54385,0 1.5608,0.95382 2.86147,1.30066 2.86147,0.95382 0,-0.43355 -1.47409,-1.64752 -3.20831,-2.68804 -1.82093,-1.04053 -3.81528,-2.68804 -4.50897,-3.64186 -2.3412,-3.46844 -6.41661,-7.71728 -6.85017,-7.28372 -0.26013,0.26013 1.040535,2.25448 2.86147,4.42226 1.734215,2.16777 3.03488,4.16212 2.77475,4.42226 -1.21396,1.30066 -12.48638,-15.26112 -11.53256,-16.90864 0.26013,-0.34684 -0.260134,-2.68804 -1.213955,-5.11595 -2.167775,-5.72293 -3.468435,-13.96046 -2.514615,-16.21495 0.52026,-1.38738 0.693685,-1.47408 0.693685,-0.26013 0.08671,2.51462 1.82093,2.60133 2.774751,0.0867 2.081064,-5.46279 7.630564,-10.49203 17.255484,-15.43456 2.68804,-1.38737 2.68804,-1.38737 2.4279,0.60699 -0.17342,1.47408 0.17343,1.99435 1.47409,2.08106 0.95382,0.0867 2.51462,0.34685 3.46844,0.60698 2.51462,0.78039 10.49203,1.99435 18.2093,2.68804 6.15648,0.52026 6.85017,0.69368 5.89635,1.12723 -1.73422,0.60699 -1.38738,1.64752 1.64751,5.02924 1.47408,1.73422 2.77475,4.16213 2.94817,5.46279 0.0867,1.30067 0.52026,3.902 0.86711,5.80964 0.43355,2.86146 0.34684,3.29502 -0.60698,2.3412 -1.47409,-1.38737 -2.51462,-1.30067 -2.51462,0.0867 0,1.30066 -3.81528,8.49767 -4.59568,8.67109 -0.34684,0.0867 -1.30066,-1.21395 -2.16777,-2.86147 -1.47409,-3.03487 -3.03488,-3.38172 -3.20831,-0.8671 -0.0867,0.6937 -0.60697,2.08106 -1.21395,3.03489 -0.86711,1.47408 -0.95382,0.95381 -0.52027,-3.29502 0.43356,-3.55515 0.26014,-4.94253 -0.43355,-4.94253 -0.69369,0 -0.7804,-0.60697 -0.43356,-1.56079 1.73422,-4.16213 1.04053,-9.01795 -1.64751,-10.75216 -1.6475,-1.12725 -2.25448,-0.78039 -2.25448,1.47408 0,2.60133 0,2.60133 -4.07542,0.52027 -4.16212,-2.16778 -12.83322,-3.29502 -13.70033,-1.82094 -0.34684,0.60699 0.08671,1.12725 1.21396,1.4741 2.51461,0.60697 2.25448,1.38737 -0.95382,3.2083 -4.16213,2.4279 -6.76346,4.94253 -8.49768,8.32425 -1.90764,3.81529 -1.474085,5.5495 1.04053,4.24885 1.5608,-0.86712 1.73422,-0.7804 1.21396,0.60697 -1.64751,3.9887 -1.64751,8.41096 -0.08672,11.27243 1.647505,3.1216 2.514615,3.55514 3.555145,1.99434 0.26014,-0.52026 1.5608,0.86711 2.94818,3.29502 2.4279,4.16214 9.19136,11.53256 10.75216,11.53256 0.34684,0 0.52026,-0.86712 0.26013,-1.99435 -0.43355,-1.64751 -0.26013,-1.5608 1.82093,0.7804 1.30066,1.47408 3.901995,3.81528 5.809635,5.20265 2.77476,1.99436 3.1216,2.51462 1.90765,2.77475 -0.86711,0.17343 -3.1216,-0.69367 -5.115955,-1.99435 -1.90764,-1.30066 -3.64186,-2.08106 -3.90199,-1.82092 -0.69369,0.69368 7.630565,5.7229 9.451495,5.7229 1.12724,0 1.5608,-0.69367 1.5608,-2.68802 0,-2.68804 0.0867,-2.68804 2.86146,-1.99436 1.47409,0.43356 5.11595,0.69368 7.97741,0.60698 3.46844,0 4.59568,0.17342 3.46844,0.6937 -0.95382,0.34683 -1.30067,0.69368 -0.7804,0.69368 1.5608,0.0867 8.49768,-3.1216 10.66545,-5.02924 1.12724,-0.95382 1.73422,-2.16777 1.38737,-2.68804 -0.34684,-0.60698 -1.21395,-0.17342 -2.16777,1.12724 -2.60133,3.20831 -6.41661,4.50896 -8.6711,2.94816 -1.82093,-1.21394 -1.73422,-1.38736 3.1216,-4.33553 5.11594,-3.29502 8.58438,-7.63057 7.19701,-9.01794 -0.52027,-0.52027 2.16777,-2.42791 7.02358,-5.11595 4.6824,-2.51462 7.63057,-4.68238 7.37044,-5.28938 -0.26014,-0.7804 0.26013,-0.9538 1.5608,-0.7804 1.04053,0.26015 1.90763,0.43357 1.90763,0.52028 0,0.0867 1.5608,0.34684 3.46844,0.52026 1.90764,0.26014 5.5495,1.12726 7.97741,2.08106 2.51462,0.95383 5.11595,1.4741 5.80964,1.21396 0.60698,-0.26013 3.38172,0.17342 6.06976,0.95382 4.16212,1.21395 5.28937,1.21395 8.06412,0.26013 3.72857,-1.30066 5.37608,-2.94817 5.4628,-5.37608 0,-1.30066 -0.26014,-1.38737 -1.30067,-0.52026 -0.95383,0.7804 -0.86711,-0.0867 0.43355,-3.81528 2.16778,-5.98306 2.3412,-11.35914 0.43356,-10.57874 -1.04054,0.34685 -1.21395,0 -0.7804,-1.90765 0.34684,-1.30066 1.12724,-3.38172 1.73422,-4.68238 1.64751,-3.20832 1.5608,-7.19702 -0.26013,-8.58439 -1.21396,-1.04053 -1.38738,-1.04053 -0.95383,0.0867 0.26014,0.69369 -0.43355,3.1216 -1.5608,5.28936 -3.81527,7.71729 -9.01793,12.05283 -9.01793,7.63057 0,-1.30067 -0.43356,-1.6475 -1.30067,-1.30067 -1.12724,0.43357 -1.12724,0.17343 0,-2.08105 1.5608,-3.03489 1.90765,-12.31295 0.52027,-15.86811 -1.30067,-3.29502 -5.80963,-8.75781 -8.41097,-10.14518 -1.12724,-0.60698 -2.08106,-1.64751 -2.08106,-2.3412 0,-1.47408 -1.47408,-1.47408 -1.99434,-0.0867 -0.52027,1.73422 -2.51463,-0.26013 -6.41662,-6.3299 -3.12159,-4.85581 -4.59568,-6.15648 -4.59568,-4.24884 0,0.43356 -0.34684,0.86711 -0.69369,0.86711 -0.43355,0 -0.7804,-1.12724 -0.7804,-2.51462 0,-1.30066 -0.7804,-3.64186 -1.82093,-5.02923 -0.95382,-1.38737 -2.08106,-3.55515 -2.34119,-4.85581 -1.21396,-4.85582 -2.3412,-3.46844 -1.73422,1.99434 0.52026,4.33556 0.43355,5.37609 -0.52027,5.02924 -0.69369,-0.26013 -1.5608,-1.56079 -2.08106,-2.94817 -0.43356,-1.38737 -1.04054,-2.68804 -1.38738,-2.94817 -0.26013,-0.26013 -1.04053,-1.73422 -1.73422,-3.29502 -1.30066,-3.03488 -2.08106,-3.46844 -2.86146,-1.47408 -0.26013,0.69368 -1.12724,1.30066 -1.90764,1.30066 -0.95382,0 -1.21395,0.43355 -0.7804,1.47409 0.26013,0.86711 0.86711,4.85581 1.30066,8.84451 0.7804,6.93688 0.6937,7.45714 -1.38737,11.0123 -3.81528,6.50332 -4.50897,5.72292 -4.50897,-5.20266 0,-5.37608 -0.26013,-11.0123 -0.52026,-12.39967 -0.52027,-2.3412 -0.26014,-2.86146 1.99435,-4.24883 2.86146,-1.64751 3.72857,-3.55516 1.21395,-2.51462 -0.86711,0.34684 -2.25448,0.60697 -3.03488,0.60697 -0.86712,0 -1.5608,0.52027 -1.5608,1.21395 0,0.7804 -0.95382,1.21396 -3.12159,1.21396 -2.42791,0 -3.03489,-0.26013 -2.60133,-1.30066 0.26013,-0.6937 0.7804,-1.90765 1.04053,-2.60133 0.86711,-2.16777 -1.99435,-2.42791 -4.59568,-0.43356 -1.90765,1.47409 -3.03489,1.73422 -5.89635,1.21395 -3.55515,-0.52026 -5.63621,-1.73421 -5.63621,-3.03488 0,-0.43355 0.60698,-0.7804 1.30066,-0.7804 2.25449,0 1.38738,-1.64751 -1.04053,-2.25448 -3.72857,-0.86711 -6.329905,-2.77475 -6.329905,-4.6824 0,-0.95382 -0.26013,-1.6475 -0.69369,-1.47408 -0.34684,0.0867 -0.7804,-0.26013 -1.04053,-0.69369 -0.26013,-0.52026 0.43356,-0.95382 1.5608,-1.12724 2.341205,-0.34685 2.601335,-2.77475 0.17342,-2.77475 -2.16777,0 -6.3299,-1.82094 -7.19701,-3.20831 -0.34684,-0.60697 -1.21395,-1.12724 -1.90764,-1.12724 -0.69369,0 -1.82093,-1.21395 -2.60133,-2.60133 -1.5608,-3.03488 -1.64751,-3.03488 7.02359,-1.30066 6.243195,1.30066 8.671105,1.12724 7.717275,-0.52027 -0.34684,-0.43355 -1.30066,-0.7804 -2.25448,-0.7804 -0.867115,0 -1.647515,-0.34684 -1.647515,-0.7804 0,-0.86711 3.381735,-0.26013 4.942535,0.95382 1.12724,0.86711 2.4279,-0.52026 1.6475,-1.82093 -0.69368,-1.04053 3.03489,-0.17342 4.50897,1.04054 0.69369,0.52026 2.3412,3.29501 3.72858,6.24318 2.68804,5.72293 9.71162,12.65981 16.12824,15.95482 3.55514,1.73422 11.53255,2.60133 11.53255,1.12724 0,-0.34684 -0.95382,-2.08106 -2.16777,-3.81528 -1.21395,-1.73422 -2.16777,-3.55515 -2.16777,-3.9887 0,-0.43356 -0.52027,-1.30067 -1.21396,-1.82093 -0.95382,-0.7804 -1.30066,-0.69369 -1.73422,0.34684 -0.69369,1.90764 -1.90764,0.95382 -2.68804,-1.90764 -0.60697,-2.60133 -4.59568,-9.19136 -11.01229,-18.2093 -2.3412,-3.12159 -4.16213,-6.59004 -4.16213,-7.71728 0,-1.5608 -0.52026,-2.08106 -1.82093,-2.08106 -1.04053,0 -5.20265,-1.73422 -9.36478,-3.81528 -4.07542,-2.16778 -8.410965,-4.33555 -9.624925,-4.85582 -1.90764,-0.7804 -1.64751,-0.86711 1.47409,-0.43355 4.162135,0.52026 4.335555,0.26013 1.99435,-3.46844 -4.33555,-6.85017 -4.42226,-6.67675 2.167785,-2.94817 2.86146,1.56079 4.7691,3.29501 4.7691,4.16212 0,0.7804 0.60698,2.3412 1.38737,3.38173 1.04054,1.5608 1.64751,1.73422 3.03489,1.04053 1.12724,-0.60697 2.16777,-0.60697 3.29501,0 0.95382,0.43356 1.90764,0.52027 2.16778,0.0867 0.60698,-0.95382 -2.77475,-4.07541 -5.5495,-5.20266 l -2.16778,-0.8671 h 2.3412 c 3.12159,-0.0867 8.84452,2.94817 11.44584,5.98305 1.12725,1.38738 4.42226,7.37043 7.37044,13.35349 3.03488,6.24319 6.67674,12.13954 8.32425,13.78704 3.12159,3.03489 12.6598,8.15083 16.73521,8.93123 l 2.51462,0.52027 -0.60697,-3.81528 c -1.21395,-8.49768 -5.63622,-14.56745 -16.21495,-22.19801 -3.38173,-2.51462 -6.3299,-5.02924 -6.50333,-5.63621 -0.17342,-0.52027 0.52027,-2.68804 1.5608,-4.7691 1.82093,-3.55516 1.99435,-3.64187 2.94817,-1.99436 0.52027,1.04053 1.21396,1.82093 1.5608,1.82093 1.47409,0 6.59004,-11.27242 8.49768,-18.64286 l 0.60698,-2.60132 0.60697,2.60132 c 0.34684,1.38738 0.69369,4.85582 0.7804,7.54386 0,2.77475 0.43355,5.02923 0.86711,5.02923 0.43355,0 1.90764,-0.60697 3.2083,-1.30066 3.55515,-1.82093 6.41662,-1.64751 6.41662,0.26013 0,2.86146 -2.60133,7.1103 -4.42226,7.1103 -2.86147,0 -1.82094,1.30067 2.94816,3.55515 2.77476,1.30067 5.02924,3.03488 5.80964,4.50897 1.21396,2.3412 1.21396,2.51462 -1.04053,4.50897 -1.38737,1.21395 -3.03488,1.82093 -3.98871,1.5608 -2.68803,-0.69369 -3.03488,1.21395 -0.43355,2.51462 1.30067,0.60697 2.3412,1.47408 2.3412,1.99435 0,0.43355 0.52026,1.38737 1.12725,1.99435 1.73421,1.82093 1.38737,4.50897 -0.52027,4.50897 -2.3412,0 -2.86147,1.21395 -1.38738,3.1216 1.73422,2.25448 1.73422,5.89634 0,5.20265 -0.69369,-0.26013 -1.64751,0.26014 -2.16777,1.21396 -1.30067,2.34119 -1.04054,2.94817 0.52026,1.64751 1.21396,-0.95383 1.5608,-0.86711 2.60133,0.52026 0.69369,0.86711 1.47409,1.38737 1.73422,1.04053 0.60698,-0.60697 5.54951,1.73422 5.54951,2.60134 0,0.26012 -1.5608,0.26012 -3.46845,-0.0867 -4.07541,-0.60698 -4.42225,0.17342 -0.95382,2.77475 4.68239,3.38173 11.70598,13.70033 20.46379,29.65515 7.28372,13.26678 14.82758,22.02459 20.98405,24.10565 2.51463,0.86711 3.1216,0.69369 6.59003,-1.99435 2.16778,-1.64751 4.07542,-3.55515 4.33555,-4.24884 0.34685,-0.7804 1.12725,-1.38738 1.82093,-1.38738 0.60698,0 1.47409,-0.95382 1.73422,-2.08106 0.34685,-1.30066 1.12725,-1.99435 1.99436,-1.90764 1.12724,0.0867 1.82093,-0.95382 2.51461,-3.81528 0.86711,-3.46844 1.04053,-3.64186 1.30067,-1.47408 0.60698,4.24883 1.99436,2.5146 1.82093,-2.42792 -0.0867,-4.7691 -0.0867,-4.7691 1.82093,-3.46843 1.04053,0.69368 2.16777,1.30065 2.51462,1.30065 1.38738,0 0.60698,-3.72856 -1.38738,-6.3299 -1.12724,-1.56079 -2.25448,-3.81527 -2.60134,-5.02923 -0.52025,-2.25448 -2.5146,-3.46843 -7.71726,-4.68239 -1.64751,-0.34684 -2.3412,-0.95382 -2.08107,-1.73422 0.60698,-1.47408 -1.21395,-2.16777 -6.15647,-2.16777 -4.94253,0 -6.06977,-0.69369 -5.89635,-3.46844 0.0867,-1.99435 -0.26013,-2.16777 -5.02924,-2.60133 -4.94251,-0.43355 -5.11594,-0.52026 -3.64186,-1.99435 0.86711,-0.7804 1.90765,-1.47409 2.3412,-1.47409 1.82093,0 0.60698,-1.38738 -1.99435,-2.4279 -2.16778,-0.7804 -2.60133,-1.30067 -1.6475,-1.82093 0.9538,-0.60698 0.9538,-1.30067 0.1734,-3.55515 -1.21394,-3.55515 -1.21394,-7.19701 -0.0867,-6.50333 0.52027,0.26013 0.8671,1.30067 0.8671,2.25449 0,3.38173 1.4741,1.47408 2.2545,-2.94817 0.60697,-3.55515 1.12724,-4.50897 2.3412,-4.42226 0.9538,0.0867 2.16776,-1.04053 3.12159,-3.03489 0.95381,-1.73422 2.94817,-4.33554 4.42225,-5.72292 l 2.77476,-2.60133 -1.4741,2.94817 c -0.9538,1.99436 -1.12723,3.20831 -0.52026,3.81529 0.60698,0.60697 1.21396,0.17342 1.90764,-1.38738 0.60698,-1.30067 1.38738,-2.3412 1.73422,-2.3412 0.34685,0 1.82093,-1.12724 3.29502,-2.51461 2.86146,-2.68804 7.71728,-4.94253 5.5495,-2.60133 -1.30066,1.30066 -1.47408,2.51462 -0.43355,2.51462 0.34683,0 3.38173,-2.51462 6.67673,-5.63622 5.80965,-5.46279 8.23755,-6.24319 5.28938,-1.64751 -1.30066,1.90765 -1.04053,4.94253 0.26012,3.29502 0.34686,-0.43355 2.77476,-2.94817 5.54951,-5.5495 l 4.94253,-4.7691 -0.52027,4.33554 -0.52027,4.33555 3.55516,-3.90199 c 1.90764,-2.16777 3.55514,-4.24884 3.55514,-4.59568 0,-1.73422 1.5608,0.43355 1.99436,2.86146 0.7804,3.64186 2.25448,3.29502 3.90199,-0.95382 1.04053,-2.68804 1.47409,-3.2083 2.08107,-2.16777 0.95382,1.73421 2.94818,1.82093 3.55515,0.0867 0.78039,-1.99436 -0.0867,-4.85582 -2.08107,-7.02359 l -1.82093,-1.90764 1.82093,-0.95382 c 1.04053,-0.60698 1.82093,-1.47409 1.82093,-2.08107 0,-1.82093 -8.23753,-4.33554 -12.48638,-3.90199 -3.64185,0.43355 -3.72857,0.34684 -3.29501,-1.82093 0.43356,-2.08106 0.34684,-2.16777 -1.04054,-1.04053 -1.21395,1.04053 -2.16777,1.04053 -5.80963,0.17342 -2.3412,-0.60698 -5.63621,-0.86711 -7.28372,-0.60698 -2.94817,0.60698 -3.03488,0.52027 -2.16777,-1.64751 1.12724,-2.94817 1.12724,-3.12159 -0.17343,-2.94817 -0.60697,0.08671 -2.25448,-0.34684 -3.72857,-1.04053 -1.56079,-0.69369 -5.20266,-1.12724 -9.10465,-1.12724 -3.55515,0.08671 -5.98306,-0.08671 -5.37608,-0.26013 1.90765,-0.69369 1.12725,-1.820935 -1.73422,-2.42791 -1.5608,-0.34685 -3.64186,-0.7804 -4.50897,-1.04053 -1.5608,-0.43356 -1.5608,-0.52027 -0.17342,-1.30067 1.38738,-0.7804 1.38738,-1.04053 -0.7804,-3.29501 -1.90764,-1.99436 -2.08106,-2.42791 -0.95382,-2.86147 0.7804,-0.34684 1.38738,-1.12724 1.38738,-1.90764 0,-1.82093 1.12724,-1.647506 3.03488,0.43356 1.73422,1.99435 3.03488,1.560795 3.03488,-1.040534 0,-1.560796 0.26014,-1.474086 3.03489,0.953824 1.73422,1.47408 3.46844,2.68804 3.90199,2.68804 z"
             fill="#f3f3f3"
             id="path14327"
             style="fill:#00ff00;fill-opacity:1" /></g><g
           id="Graphic_67"
           style="fill:#00ff00;fill-opacity:1"><path
             d="m 172.06423,76.038635 c 0,7.803985 -5.11595,23.325245 -9.79833,29.655145 -3.0349,4.16213 -4.42227,2.51462 -1.90765,-2.25448 1.47409,-2.86146 1.73422,-6.24319 0.43355,-7.02359 -0.60697,-0.34684 -0.60697,-1.04053 0,-2.16777 0.43356,-0.86711 0.86711,-2.51462 0.86711,-3.64186 0,-1.99436 0.95383,-3.902 3.72858,-7.8907 0.95381,-1.30067 1.73421,-4.33555 1.90764,-7.543855 0.52027,-6.763455 1.12724,-7.717275 3.12159,-5.115945 1.04053,1.30066 1.64751,3.55515 1.64751,5.983055 z"
             fill="#f3f3f3"
             id="path14330"
             style="fill:#00ff00;fill-opacity:1" /></g><g
           id="Graphic_66"
           style="fill:#00ff00;fill-opacity:1"><path
             d="m 184.5506,85.14329 c -0.26012,1.90764 -1.12723,4.59568 -1.90763,6.06976 -2.25449,4.50897 -12.31296,17.68904 -14.74087,19.42326 -2.3412,1.64751 -2.4279,1.64751 -4.33554,0 l -1.99436,-1.5608 2.94818,-3.90199 c 1.6475,-2.16778 3.90199,-6.85017 5.02923,-10.49203 1.64751,-5.11595 2.51462,-6.59003 4.24884,-7.28372 2.51462,-0.95382 6.24319,-4.33555 8.41096,-7.63056 l 1.47409,-2.16778 0.69369,1.99435 c 0.43355,1.12725 0.52026,3.64186 0.17341,5.54951 z"
             fill="#f3f3f3"
             id="path14333"
             style="fill:#00ff00;fill-opacity:1" /></g><g
           id="Graphic_65"><path
             d="m 110.23931,85.57684 c 1.5608,0.95382 3.03489,2.68804 3.38173,3.90199 0.69369,2.68804 1.82093,2.77475 2.3412,0.17343 0.34684,-1.5608 0.43355,-1.47409 0.52026,0.60697 0.0867,2.16778 0.34685,2.3412 2.25449,1.90764 1.64751,-0.43355 1.99435,-0.26013 1.64751,0.7804 -0.34685,0.69369 -0.0867,1.30067 0.43355,1.30067 0.52027,0 0.69369,0.60697 0.43355,1.30066 -0.34684,0.7804 0,1.30067 0.86712,1.30067 1.99435,0 1.73421,1.82093 -0.34685,2.34119 -0.95382,0.26014 -1.73422,1.04053 -1.73422,1.64751 0,1.73422 -1.38737,1.47409 -5.63621,-1.04053 -3.46844,-1.99435 -3.72857,-2.42791 -2.94817,-4.33555 1.64751,-4.50897 -4.33555,-11.70598 -8.41097,-10.14518 -1.04053,0.34684 -1.30066,0.26013 -0.86711,-0.43356 0.95382,-1.56079 4.94253,-1.21395 8.06412,0.69369 z"
             fill="#f3f3f3"
             id="path14336" /></g><g
           id="Graphic_64"
           style="fill:#00ff00;fill-opacity:1"><path
             d="m 186.54496,102.39877 c -3.03488,6.24319 -5.02923,9.01794 -9.01794,12.6598 -6.15648,5.63621 -12.39967,9.19136 -14.56744,8.32425 -1.47408,-0.52027 -1.30067,-0.86711 1.12724,-3.12159 1.64751,-1.47409 2.77475,-3.38173 2.77475,-4.50897 0,-1.30067 1.38738,-3.38173 3.55515,-5.46279 1.99435,-1.90765 5.11595,-5.72293 6.93688,-8.49768 1.90764,-2.68804 3.9887,-4.94252 4.59568,-4.94252 0.60698,0 2.60132,-1.30067 4.50897,-2.94818 3.12159,-2.68804 3.38173,-2.77475 3.64185,-1.21395 0.17343,0.95382 -1.47408,5.28937 -3.55514,9.71163 z"
             fill="#f3f3f3"
             id="path14339"
             style="fill:#00ff00;fill-opacity:1" /></g><g
           id="Graphic_63"><path
             d="m 110.49945,103.78614 c 0,0.43356 -0.34685,0.86711 -0.86711,0.86711 -0.43356,0 -0.86711,-0.43355 -0.86711,-0.86711 0,-0.52026 0.43355,-0.86711 0.86711,-0.86711 0.52026,0 0.86711,0.34685 0.86711,0.86711 z"
             fill="#f3f3f3"
             id="path14342" /></g><g
           id="Graphic_62"
           style="fill:#00ff00;fill-opacity:1"><path
             d="m 190.0134,117.92003 c -1.73422,2.94817 -4.42226,6.76346 -5.98306,8.41097 -4.33554,4.33554 -11.18571,7.80398 -15.60797,7.80398 h -3.72857 v -4.24884 -4.24884 l 5.20266,-2.94817 c 2.86146,-1.56079 5.98305,-2.86146 7.02358,-2.86146 1.90765,-0.0867 12.05283,-6.93687 14.30731,-9.62492 1.12725,-1.38737 1.21395,-1.38737 1.47409,0.43356 0.17342,1.04053 -1.04054,4.33555 -2.68804,7.28372 z"
             fill="#f3f3f3"
             id="path14345"
             style="fill:#00ff00;fill-opacity:1" /></g><g
           id="Graphic_61"
           style="fill:#00ff00;fill-opacity:1"><path
             d="m 63.675526,125.29046 c 5.029234,1.12724 11.705984,2.51462 14.914284,3.03489 5.37608,0.86711 5.89635,1.12724 6.85017,3.55515 0.60697,1.47408 1.30066,3.03488 1.47408,3.46843 0.17343,0.34685 -4.50897,0.60698 -10.40531,0.43356 -10.145184,-0.34685 -11.01229,-0.52027 -14.56744,-2.86146 -6.06977,-3.98871 -11.53256,-9.36479 -10.2319,-10.14519 0.52027,-0.34684 1.47409,-0.43355 1.994355,-0.0867 0.433555,0.34685 4.942525,1.47409 9.971761,2.60133 z"
             fill="#f3f3f3"
             id="path14348"
             style="fill:#00ff00;fill-opacity:1" /></g><g
           id="Graphic_60"
           style="fill:#00ff00;fill-opacity:1"><path
             d="m 185.07087,132.31405 c 0,1.21395 -4.7691,4.42226 -7.9774,5.28937 -5.37608,1.5608 -9.27807,1.82093 -11.0123,0.69368 -2.86146,-1.73421 -2.16777,-2.4279 2.3412,-2.34119 2.94817,0.17342 5.20266,-0.43355 7.97741,-1.99435 3.90199,-2.16778 8.67109,-3.03489 8.67109,-1.64751 z"
             fill="#f3f3f3"
             id="path14351"
             style="fill:#00ff00;fill-opacity:1" /></g><g
           id="Graphic_59"
           style="fill:#00ff00;fill-opacity:1"><path
             d="m 81.45127,138.81737 c 1.90764,0.0867 4.50897,-0.17342 5.80964,-0.60697 1.73422,-0.52027 2.86146,-0.43356 4.16212,0.52026 1.82093,1.30067 1.82093,1.30067 -0.60697,2.94817 -5.63622,3.98871 -11.44585,4.59568 -23.32525,2.51462 -8.06412,-1.47408 -12.31296,-3.03488 -14.2206,-5.28937 -1.21395,-1.47408 -0.7804,-1.56079 11.70598,-0.95382 7.19701,0.34684 14.56744,0.69369 16.47508,0.86711 z"
             fill="#f3f3f3"
             id="path14354"
             style="fill:#00ff00;fill-opacity:1" /></g><g
           id="Graphic_58"
           style="fill:#00ff00;fill-opacity:1"><path
             d="m 166.42802,140.29146 c 0.34684,0.52026 1.99435,0.69369 4.07541,0.43355 1.90764,-0.26013 4.24884,-0.0867 5.28937,0.43356 1.5608,0.95382 1.6475,1.04053 0.26013,1.82093 -1.30066,0.7804 -4.50897,0.52026 -11.099,-0.69369 -1.5608,-0.34684 -2.16777,-0.86711 -1.82093,-1.73422 0.52027,-1.47409 2.51462,-1.64751 3.29502,-0.26013 z"
             fill="#f3f3f3"
             id="path14357"
             style="fill:#00ff00;fill-opacity:1" /></g><g
           id="Graphic_57"
           style="fill:#00ff00;fill-opacity:1"><path
             d="m 94.54463,149.74295 c -4.50897,6.85017 -13.96047,10.2319 -25.40631,9.27808 -6.67675,-0.52027 -12.659804,-2.08107 -12.05283,-3.1216 0.260136,-0.34684 3.46844,-1.38737 7.19701,-2.16777 3.728574,-0.86711 11.79269,-3.72857 18.03588,-6.41661 l 11.27243,-5.02924 1.64751,2.08106 c 1.56079,1.90764 1.56079,1.99436 -0.69369,5.37608 z"
             fill="#f3f3f3"
             id="path14360"
             style="fill:#00ff00;fill-opacity:1" /></g><g
           id="Graphic_56"
           style="fill:#00ff00;fill-opacity:1"><path
             d="m 101.30808,152.69113 c -1.30066,4.07541 -6.15647,12.31295 -9.10465,15.34784 -2.25448,2.25448 -5.11594,3.81528 -9.71162,5.37608 l -6.59004,2.16777 6.67675,-7.71728 c 3.64186,-4.33554 6.85016,-8.32424 7.1103,-8.93122 0.26013,-0.52027 2.16777,-3.20831 4.24883,-5.89635 3.72857,-4.7691 3.902,-4.85581 5.89635,-3.55515 1.47408,1.04053 1.90764,1.82093 1.47408,3.20831 z"
             fill="#f3f3f3"
             id="path14363"
             style="fill:#00ff00;fill-opacity:1" /></g><g
           id="Graphic_55"
           style="fill:#00ff00;fill-opacity:1"><path
             d="m 107.8114,157.54694 c 0.52027,0 0.26014,1.64751 -0.52026,3.90199 -2.25448,6.59004 -6.41661,13.52691 -9.19136,15.26113 -2.60133,1.5608 -11.61927,3.902 -12.39967,3.20831 -0.17342,-0.17342 0.69369,-1.47409 1.82093,-2.94817 4.7691,-5.63622 10.57874,-14.04718 12.91993,-18.64286 l 2.51462,-4.7691 1.99435,1.99435 c 1.12725,1.12724 2.42791,1.99435 2.86146,1.99435 z"
             fill="#f3f3f3"
             id="path14366"
             style="fill:#00ff00;fill-opacity:1" /></g><g
           id="Graphic_54"
           style="fill:#00ff00;fill-opacity:1"><path
             d="m 118.0433,164.22368 c -0.60698,7.71728 -2.77475,11.70598 -9.01794,16.21495 -3.72857,2.68804 -9.4515,4.59569 -10.57874,3.46844 -0.43355,-0.43355 1.38738,-4.16212 5.89635,-12.31295 1.47408,-2.51462 2.51462,-4.6824 2.51462,-4.76911 -0.0867,-0.0867 0.60697,-1.99435 1.47408,-4.33554 1.30067,-3.38173 1.90764,-4.07542 3.81528,-4.07542 1.21396,0 2.86147,-0.34685 3.55515,-0.7804 2.25449,-1.47409 2.86147,0.0867 2.3412,6.59003 z"
             fill="#f3f3f3"
             id="path14369"
             style="fill:#00ff00;fill-opacity:1" /></g><g
           id="Graphic_53"
           style="fill:#00ff00;fill-opacity:1"><path
             d="m 126.28084,168.81937 c 0.52026,6.50332 0.43356,7.80398 -1.30066,11.099 -1.99435,3.9887 -6.76346,8.84452 -8.75781,8.84452 -1.04053,0 -1.04053,-0.7804 -0.0867,-5.02924 2.25448,-9.71163 3.90199,-18.46943 3.90199,-20.5505 0,-1.90764 0.34685,-2.08106 2.86146,-1.90764 l 2.77475,0.17342 z"
             fill="#f3f3f3"
             id="path14372"
             style="fill:#00ff00;fill-opacity:1" /></g><g
           id="Graphic_52"
           style="fill:#00ff00;fill-opacity:1"><path
             d="m 139.02735,165.61106 c 2.42791,5.02924 2.3412,8.58439 -0.34684,11.61927 l -2.08106,2.42791 -0.17343,-3.03489 c -0.26013,-5.37608 -0.60697,-9.01794 -1.21395,-11.96611 -0.95382,-4.24884 1.5608,-3.64186 3.81528,0.95382 z"
             fill="#f3f3f3"
             id="path14375"
             style="fill:#00ff00;fill-opacity:1" /></g><g
           id="Graphic_51"
           style="fill:#00ff00;fill-opacity:1"><path
             d="m 174.05858,207.31903 c -0.60698,2.3412 -1.47408,4.6824 -1.90764,5.11595 -0.95382,0.95382 -5.37608,0.86712 -10.05847,-0.17342 -3.29502,-0.7804 -3.1216,-0.7804 2.08106,-0.69369 7.1103,0.0867 8.75781,-1.5608 8.75781,-8.84452 0.0867,-4.68239 0.0867,-4.7691 1.12724,-2.34119 0.95382,2.08106 0.95382,3.46844 0,6.93687 z"
             fill="#f3f3f3"
             id="path14378"
             style="fill:#00ff00;fill-opacity:1" /></g><g
           id="Graphic_50"
           style="fill:#00ff00;fill-opacity:1"><path
             d="m 105.12337,215.20973 c 0,1.38737 -0.17343,1.30067 -0.69369,-0.43355 -0.95382,-2.94818 -0.95382,-5.20266 0,-3.03488 0.43355,0.95381 0.69369,2.5146 0.69369,3.46843 z"
             fill="#f3f3f3"
             id="path14381"
             style="fill:#00ff00;fill-opacity:1" /></g><g
           id="Graphic_49"
           style="fill:#00ff00;fill-opacity:1"><path
             d="m 151.68715,212.17485 c -2.34119,1.04053 -3.72857,1.04053 -2.16777,0 0.69369,-0.43355 1.90764,-0.7804 2.60132,-0.7804 0.86712,0 0.6937,0.26013 -0.43355,0.7804 z"
             fill="#f3f3f3"
             id="path14384"
             style="fill:#00ff00;fill-opacity:1" /></g><g
           id="Graphic_48"
           style="fill:#00ff00;fill-opacity:1"><path
             d="m 157.06323,211.828 c -0.26013,0.26014 -1.04053,0.34685 -1.6475,0.0867 -0.69369,-0.26013 -0.43356,-0.52026 0.52027,-0.52026 0.95381,-0.0867 1.47408,0.17342 1.12723,0.43355 z"
             fill="#f3f3f3"
             id="path14387"
             style="fill:#00ff00;fill-opacity:1" /></g><g
           id="Graphic_47"
           style="fill:#00ff00;fill-opacity:1"><path
             d="m 168.76921,216.07684 c 0.43356,0.69369 1.12725,1.12724 1.64751,0.86711 0.43356,-0.34685 0.7804,-0.0867 0.7804,0.34685 0,0.52026 0.60698,0.95381 1.38738,0.95381 0.95382,0 1.21395,0.52027 0.7804,1.82093 -0.52027,1.5608 -0.34685,1.73422 1.30066,1.21396 2.60133,-0.7804 4.33554,1.6475 4.16213,6.06977 -0.0867,3.46843 -0.0867,3.46843 -0.60699,0.60697 -0.52026,-2.94817 -1.21394,-3.46844 -9.6249,-7.54384 -3.98871,-1.99436 -5.63622,-2.2545 -10.1452,-1.99436 -3.03487,0.17342 -5.46278,0.26013 -5.46278,0.0867 0,-0.0867 1.30066,-0.60698 2.86146,-1.04053 2.42791,-0.69369 2.51462,-0.7804 0.60698,-0.86712 -3.55516,-0.17342 -6.06977,-1.12724 -5.46279,-2.08106 0.34684,-0.52026 3.55515,-0.69368 8.7578,-0.34684 6.3299,0.34684 8.49768,0.7804 9.01794,1.90764 z"
             fill="#f3f3f3"
             id="path14390"
             style="fill:#00ff00;fill-opacity:1" /></g><g
           id="Graphic_46"
           style="fill:#00ff00;fill-opacity:1"><path
             d="m 260.5094,222.75358 c -2.77474,2.25449 -3.03487,2.3412 -4.50896,0.95382 -2.08106,-1.90764 -1.99434,-2.86146 0.43356,-2.86146 1.04053,0 2.86146,-0.52026 4.0754,-1.12724 3.29503,-1.73422 3.29503,0.26013 0,3.03488 z"
             fill="#f3f3f3"
             id="path14393"
             style="fill:#00ff00;fill-opacity:1" /></g><g
           id="Graphic_45"
           style="fill:#00ff00;fill-opacity:1"><path
             d="m 263.631,230.12402 c -0.34684,1.82093 -0.8671,5.11594 -1.04052,7.37043 -0.52028,3.90199 -0.69368,4.16212 -3.03488,4.16212 -1.38738,0 -2.51463,0.17343 -2.51463,0.43356 0,1.21395 3.81529,7.8907 4.85583,8.49767 0.60697,0.34685 0.9538,1.12725 0.69368,1.73422 -0.60698,1.64751 2.86146,4.50898 8.15082,6.67675 3.55516,1.56079 4.33555,2.16777 3.55516,3.12159 -1.04054,1.21394 -0.34686,2.94817 1.12724,2.94817 0.52026,0 3.38173,1.21397 6.4166,2.77477 4.24885,2.16776 5.28938,3.03487 4.50898,3.90198 -0.69368,0.86712 -0.0867,1.99435 2.25449,4.59568 3.03488,3.38174 4.42225,6.50332 1.99435,4.42226 -1.73422,-1.38738 -2.3412,-0.26012 -2.3412,4.42226 0,2.25448 -0.34684,4.16212 -0.86712,4.16212 -0.43354,0 -0.8671,-0.60697 -0.8671,-1.30066 0,-2.25448 -1.5608,-1.38738 -2.5146,1.47409 -0.95384,2.60133 -1.04055,2.68804 -2.51463,1.30067 -1.38737,-1.3874 -1.21397,-1.73423 2.4279,-4.85582 2.16778,-1.90764 3.55515,-3.72858 3.20831,-4.07542 -0.43356,-0.43356 -1.38738,0.0867 -2.16778,1.12724 -0.7804,1.12725 -2.77475,2.94818 -4.42225,4.16213 -1.64751,1.21397 -2.77475,2.16777 -2.42791,2.16777 0.34684,0 -0.69369,1.99436 -2.3412,4.50897 -2.08106,3.03489 -2.94817,5.11595 -2.60134,6.41663 0.26015,1.0405 0.0867,2.16776 -0.43354,2.4279 -1.47409,0.9538 -1.21396,-4.33556 0.34684,-7.28373 1.30067,-2.60133 1.30067,-2.60133 -0.95382,-2.60133 -2.16778,0 -2.25448,-0.0867 -1.04053,-1.99434 0.7804,-1.04054 3.46845,-3.2083 6.15648,-4.7691 2.68804,-1.5608 5.63621,-3.9887 6.67674,-5.3761 2.08107,-2.94816 1.64751,-4.59567 -2.86147,-9.36478 -3.90198,-3.9887 -4.8558,-3.46842 -1.12723,0.69368 3.55515,3.902 3.90199,5.20267 1.38737,5.20267 -0.95382,0 -2.68804,-1.5608 -4.33554,-3.9887 -3.0349,-4.33555 -6.2432,-5.02924 -6.76346,-1.47409 -0.26014,1.73422 -0.69369,1.5608 -4.24884,-2.3412 -2.77475,-3.03488 -4.24883,-4.07541 -5.02923,-3.46844 -0.69369,0.60698 -1.30067,-0.0867 -2.08107,-2.4279 -1.99435,-5.98306 -5.6362,-12.39967 -6.76345,-11.96612 -1.47409,0.60698 -1.47409,-2.60132 0,-6.93687 0.69369,-1.90765 1.47409,-4.59568 1.73422,-6.15648 0.52026,-2.51462 0.34683,-2.77475 -1.82093,-3.03488 -2.08106,-0.26014 -1.73422,-0.69369 4.07541,-4.42226 3.55515,-2.25449 6.85017,-4.07543 7.28372,-4.07543 0.43356,0 0.52027,1.38739 0.26013,3.20832 z"
             fill="#f3f3f3"
             id="path14396"
             style="fill:#00ff00;fill-opacity:1" /></g><g
           id="Graphic_44"
           style="fill:#00ff00;fill-opacity:1"><path
             d="m 279.4991,302.44096 c -2.25447,1.38738 -0.26012,3.20831 6.50334,5.89634 l 2.60133,1.04054 -2.16777,1.12724 c -1.82094,0.95382 -2.3412,0.86712 -3.9887,-0.60698 -2.51463,-2.2545 -2.51463,-1.21395 -0.17344,2.08107 0.95384,1.38737 1.64751,3.03488 1.38738,3.64186 -0.17342,0.52027 -1.99434,-1.47409 -3.90199,-4.59568 -1.99435,-3.1216 -3.20831,-5.80965 -2.77475,-5.89635 0.52026,-0.17342 0.0867,-1.6475 -0.8671,-3.295 -2.51463,-3.98872 -1.3874,-5.4628 1.82092,-2.42792 1.64751,1.64752 2.16778,2.60132 1.56078,3.03488 z"
             fill="#f3f3f3"
             id="path14399"
             style="fill:#00ff00;fill-opacity:1" /></g><g
           id="Graphic_43"
           style="fill:#00ff00;fill-opacity:1"><path
             d="m 290.85825,320.73697 c -1.04053,0.34683 -1.73422,1.38738 -1.73422,2.60133 0,1.82093 0,1.82093 -1.21395,0.17342 -1.21396,-1.56079 -1.38738,-1.56079 -4.33555,1.30068 -2.68803,2.6013 -3.1216,2.77474 -3.1216,1.30065 0,-0.95382 0.43357,-2.16777 1.04054,-2.77475 1.56079,-1.5608 -1.12725,-1.38737 -3.29502,0.17342 -1.12725,0.86711 -1.99435,0.95382 -2.68805,0.34685 -0.7804,-0.60697 -1.47408,-0.60697 -2.4279,0.17343 -1.04053,0.8671 -1.30066,0.7804 -1.30066,-0.34685 0,-1.12725 -0.43356,-1.38738 -1.82094,-0.95382 -1.5608,0.52027 -1.6475,0.43355 -0.60697,-1.21396 0.95382,-1.5608 0.95382,-1.99435 -0.17343,-2.68804 -0.9538,-0.69369 -0.26012,-0.86711 2.60134,-0.69369 2.16776,0.0867 4.68239,0.60698 5.63621,1.30066 2.42791,1.6475 5.11595,1.3874 6.93688,-0.60697 0.86711,-0.95383 1.90764,-1.47408 2.34119,-1.21395 0.52028,0.34684 0.60698,-0.26013 0.26014,-1.47408 -0.60698,-1.90765 -0.34686,-1.73423 2.51461,0.9538 2.94818,2.77476 3.03489,3.0349 1.38738,3.64187 z"
             fill="#f3f3f3"
             id="path14402"
             style="fill:#00ff00;fill-opacity:1" /></g><g
           id="Graphic_41"><path
             d="m 211.08416,73.26388 c 0,0.95382 7.63057,4.94253 8.32426,4.33555 0.26013,-0.34684 -1.47409,-1.560795 -3.902,-2.77475 -2.4279,-1.30066 -4.42226,-1.99435 -4.42226,-1.5608 z"
             fill="#000000"
             id="path14408" /></g><g
           id="Graphic_40"><path
             d="m 232.7619,80.37418 c 4.24884,1.82093 6.06977,2.08107 6.06977,1.04053 0,-0.78039 -6.24319,-2.77475 -8.41097,-2.68804 -0.8671,0 0.17343,0.7804 2.3412,1.64751 z"
             fill="#000000"
             id="path14411" /></g><g
           id="Graphic_39"><path
             d="m 247.50277,84.27618 c 0,0.69368 5.28937,2.68804 7.97741,2.94817 0.26012,0.08671 1.82092,1.12724 3.29502,2.34119 2.86146,2.42791 3.9887,2.51462 2.25448,0.17343 -1.73422,-2.42791 -13.52691,-7.1103 -13.52691,-5.46279 z"
             fill="#000000"
             id="path14414" /></g><g
           id="Graphic_38"><path
             d="m 267.4463,103.09246 c 0,1.82093 -0.7804,4.59568 -1.73423,6.3299 -1.64751,2.94817 -1.64751,3.03488 -0.0867,2.25448 2.16777,-1.21395 4.07542,-8.06412 2.77474,-10.23189 -0.7804,-1.30067 -0.8671,-1.04053 -0.9538,1.64751 z"
             fill="#000000"
             id="path14417" /></g><g
           id="Graphic_37"><path
             d="m 250.1908,119.48083 c -3.03488,1.38737 -5.37607,2.77475 -5.11594,3.03488 0.60698,0.52027 11.96611,-4.50897 11.96611,-5.20266 0,-0.86711 -1.04053,-0.52026 -6.85017,2.16778 z"
             fill="#000000"
             id="path14420" /></g><g
           id="Graphic_36"><path
             d="m 233.62901,124.24993 c -1.64751,0.60697 -3.90199,1.12724 -4.94251,1.12724 -1.12725,0.0867 -1.99436,0.43356 -1.99436,0.86711 0,0.86711 3.03488,0.52027 6.41661,-0.7804 1.12725,-0.43355 2.25448,-0.60698 2.51462,-0.34684 0.17343,0.17342 0.86711,-0.17342 1.47408,-0.95382 1.30067,-1.5608 0.69369,-1.47409 -3.46844,0.0867 z"
             fill="#000000"
             id="path14423" /></g><g
           id="Graphic_35"><path
             d="m 214.5526,129.71272 c -3.46844,1.90764 -7.45714,5.89635 -6.67674,6.67675 0.26014,0.34684 1.73422,-0.69369 3.29501,-2.16778 1.47409,-1.47409 3.81529,-3.29502 5.20266,-4.07541 2.42791,-1.21396 3.20831,-2.08107 1.90764,-2.08107 -0.43355,0.0867 -2.08107,0.7804 -3.72857,1.64751 z"
             fill="#000000"
             id="path14426" /></g><g
           id="Graphic_34"><path
             d="m 205.96822,142.37252 c 0.17342,0.52027 1.12724,3.03488 2.08106,5.5495 1.82092,4.85582 5.46279,9.62492 7.45714,9.62492 0.60698,0 -0.26012,-1.47409 -1.99435,-3.29502 -1.73422,-1.73422 -3.64187,-4.85581 -4.24884,-6.93687 -0.60697,-1.99435 -1.6475,-4.16213 -2.34119,-4.76911 -0.69369,-0.52026 -1.12724,-0.60697 -0.95382,-0.17342 z"
             fill="#000000"
             id="path14429" /></g><g
           id="Graphic_33"><path
             d="m 221.48948,159.71471 c 0.60698,0.7804 1.64752,1.21396 2.3412,0.95382 1.21395,-0.52026 1.90764,0.0867 8.32425,7.19701 2.25447,2.51462 4.07541,4.16213 4.07541,3.55516 0,-1.4741 -8.58438,-10.92559 -11.01229,-12.05283 -1.12725,-0.52027 -2.68805,-0.95382 -3.46845,-0.95382 -1.12723,0 -1.12723,0.26013 -0.26012,1.30066 z"
             fill="#000000"
             id="path14432" /></g><g
           id="Graphic_32"><path
             d="m 231.02769,188.1559 c -3.81529,6.85018 -4.07542,7.37044 -2.34119,5.89636 1.5608,-1.21396 6.24318,-10.31861 5.7229,-10.92559 -0.1734,-0.17342 -1.7342,2.08107 -3.38171,5.02923 z"
             fill="#000000"
             id="path14435" /></g><g
           id="Graphic_31"><path
             d="m 216.8071,200.55558 c -1.30068,1.21395 -2.2545,2.34119 -1.99436,2.60132 0.17342,0.26014 1.56079,-0.52026 2.86146,-1.73421 1.38737,-1.12724 2.3412,-2.34119 2.08106,-2.51462 -0.26013,-0.26013 -1.5608,0.52027 -2.94816,1.64751 z"
             fill="#000000"
             id="path14438" /></g><g
           id="Graphic_30"><path
             d="m 79.45692,206.1918 c -4.33555,4.0754 -4.59568,4.68238 -1.04053,2.68803 1.387375,-0.7804 2.60133,-1.90763 2.60133,-2.51462 0,-0.60697 0.69369,-1.38737 1.47409,-1.90764 0.8671,-0.43355 1.38737,-1.04053 1.12724,-1.21395 -0.26014,-0.26013 -2.08107,1.04053 -4.16213,2.94818 z"
             fill="#000000"
             id="path14441" /></g><g
           id="Graphic_29"><path
             d="m 92.29014,203.33033 c 0,0.43355 2.60133,0.95382 5.89635,1.21395 5.5495,0.26014 5.98306,0.43356 9.62491,4.07542 1.99436,1.99435 3.902,3.46844 4.16213,3.2083 0.7804,-0.69368 -6.06976,-7.28372 -8.49767,-8.15083 -2.94817,-1.04053 -11.18572,-1.30067 -11.18572,-0.34684 z"
             fill="#000000"
             id="path14444" /></g><g
           id="Graphic_28"><path
             d="m 259.03533,213.82236 c -3.46843,0.60697 -5.37608,1.47408 -4.50897,2.08106 0.69368,0.60698 13.78704,-1.47409 13.78704,-2.16778 0,-0.78039 -3.9887,-0.78039 -9.27807,0.0867 z"
             fill="#000000"
             id="path14447" /></g><g
           id="Graphic_27"><path
             d="m 270.91473,217.98448 c 0,1.38738 -0.60698,3.38172 -1.38738,4.42226 -0.95382,1.47409 -1.04053,1.90764 -0.17342,1.90764 2.25449,0 4.33555,-7.1103 2.42791,-8.23754 -0.52027,-0.34684 -0.86711,0.52026 -0.86711,1.90764 z"
             fill="#000000"
             id="path14450" /></g><g
           id="Graphic_26"><path
             d="m 248.36988,218.33133 c -1.21396,0.52027 -3.81528,0.78039 -5.89635,0.52027 -2.4279,-0.26014 -3.64186,-0.0867 -3.38173,0.52026 0.17343,0.60697 2.16778,0.86711 5.02924,0.69368 5.46279,-0.17342 7.71728,-0.78039 7.71728,-1.90764 0,-0.95382 -0.69369,-0.95382 -3.46844,0.17343 z"
             fill="#000000"
             id="path14453" /></g><g
           id="Graphic_25"><path
             d="m 70.69911,225.35491 c 0.08671,1.12725 0.43356,3.12159 0.7804,4.59569 0.60698,2.25448 0.69369,1.90764 0.7804,-1.99436 0,-2.51462 -0.26013,-4.50897 -0.7804,-4.50897 -0.43355,0 -0.7804,0.86711 -0.7804,1.90764 z"
             fill="#000000"
             id="path14456" /></g><g
           id="Graphic_24"><path
             d="m 205.0144,228.21638 c 0,1.12724 5.5495,10.83887 6.24319,10.83887 0.78039,0 0.60697,-0.34685 -2.86147,-7.19701 -1.73422,-3.46844 -3.38172,-5.20266 -3.38172,-3.64186 z"
             fill="#000000"
             id="path14459" /></g><g
           id="Graphic_23"><path
             d="m 144.1433,243.82435 c -3.72857,1.99435 -6.67674,4.50897 -3.9887,3.46845 4.59568,-1.82094 11.18571,-5.5495 9.79833,-5.5495 -0.95382,0 -3.55514,0.9538 -5.80963,2.08105 z"
             fill="#000000"
             id="path14462" /></g><g
           id="Graphic_22"><path
             d="m 215.4197,242.43697 c 0,0.95383 8.32426,8.75781 9.3648,8.75781 0.43355,0 -1.38738,-2.16778 -3.9887,-4.7691 -4.94253,-4.94253 -5.3761,-5.28938 -5.3761,-3.98871 z"
             fill="#000000"
             id="path14465" /></g><g
           id="Graphic_21"><path
             d="m 163.9134,257.95824 c -0.17342,0.34684 0.26013,0.69368 1.04053,0.69368 0.7804,0 3.03489,0.34685 4.94253,0.69368 2.16777,0.43357 3.12159,0.34686 2.60133,-0.1734 -1.12725,-1.12725 -8.06412,-2.08107 -8.58439,-1.21396 z"
             fill="#000000"
             id="path14468" /></g><g
           id="Graphic_20"><path
             d="m 229.90044,259.9526 c 0.34686,1.6475 0.69369,4.24883 0.69369,5.7229 0,1.5608 0.26013,2.86147 0.69369,2.86147 1.21395,0 0.69368,-9.27807 -0.69369,-10.40531 -1.12723,-0.95382 -1.21395,-0.69369 -0.69369,1.82094 z"
             fill="#000000"
             id="path14471" /></g><g
           id="Graphic_19"><path
             d="m 182.036,265.84893 c 2.94816,1.30067 7.8907,2.08107 6.93687,1.12725 -0.43356,-0.43356 -2.60133,-1.12725 -4.7691,-1.38738 -2.51462,-0.34684 -3.29502,-0.26013 -2.16777,0.26013 z"
             fill="#000000"
             id="path14474" /></g><g
           id="Graphic_18"><path
             d="m 192.4413,269.40408 c 0.26014,0.43356 0.95383,0.86712 1.38738,0.86712 0.52027,0 0.60698,-0.43356 0.34685,-0.86712 -0.26013,-0.52026 -0.95383,-0.86711 -1.38738,-0.86711 -0.52027,0 -0.60698,0.34685 -0.34685,0.86711 z"
             fill="#000000"
             id="path14477" /></g><g
           id="Graphic_17"><path
             d="m 151.2536,275.0403 c 0,2.08106 2.51462,6.59003 4.6824,8.32425 2.68803,2.16777 2.86145,1.21395 0.26012,-1.47409 -1.21395,-1.21396 -2.51462,-3.38173 -2.77475,-4.7691 -0.60697,-2.77476 -2.16777,-4.24884 -2.16777,-2.08106 z"
             fill="#000000"
             id="path14480" /></g><g
           id="Graphic_16"><path
             d="m 203.28018,274.60674 c 3.12159,1.04053 9.5382,1.04053 9.5382,0 0,-0.52026 -2.51461,-0.86711 -5.80963,-0.7804 -4.33555,0.0867 -5.28937,0.26014 -3.72857,0.7804 z"
             fill="#000000"
             id="path14483" /></g><g
           id="Graphic_15"><path
             d="m 222.79014,274.43332 c -5.11594,0.43355 -5.98304,1.90764 -1.12724,1.90764 2.25449,0 4.33555,-0.43356 4.59568,-0.95382 0.7804,-1.21394 0.60698,-1.30066 -3.46844,-0.95382 z"
             fill="#000000"
             id="path14486" /></g><g
           id="Graphic_14"><path
             d="m 166.86157,287.43996 c 0,0.52027 1.04053,1.12724 2.42791,1.38738 1.30066,0.34684 3.03488,0.7804 3.90199,1.04053 0.7804,0.26013 1.47409,0.0867 1.47409,-0.34684 0,-0.52027 -1.04053,-1.12723 -2.3412,-1.38738 -1.38737,-0.34685 -3.12159,-0.7804 -3.90199,-1.04053 -0.86711,-0.26012 -1.5608,-0.0867 -1.5608,0.34684 z"
             fill="#000000"
             id="path14489" /></g><g
           id="Graphic_13"><path
             d="m 184.63732,290.2147 c 0.26013,0.43357 1.47408,0.86712 2.68804,0.86712 1.12724,0 2.08106,-0.43355 2.08106,-0.86712 0,-0.52025 -1.21395,-0.8671 -2.68804,-0.8671 -1.47408,0 -2.4279,0.34685 -2.08106,0.8671 z"
             fill="#000000"
             id="path14492" /></g><g
           id="Graphic_12"><path
             d="m 209.26323,302.96123 c 0.34685,4.07541 0.52027,4.50897 0.86711,2.4279 0.60698,-2.86146 0.17343,-7.37043 -0.69368,-7.37043 -0.26014,0 -0.34686,2.2545 -0.17343,4.94253 z"
             fill="#000000"
             id="path14495" /></g><g
           id="Graphic_11"><path
             d="m 94.80476,301.40043 c 2.51462,1.47407 5.20266,3.12159 5.80964,3.64187 0.69368,0.52025 1.21395,0.69368 1.21395,0.26012 0,-1.04052 -6.76345,-5.20266 -9.53821,-5.89634 -1.21395,-0.34685 -0.08671,0.52026 2.51462,1.99435 z"
             fill="#000000"
             id="path14498" /></g><g
           id="Graphic_10"><path
             d="m 114.40144,309.9848 c 0.52026,0.52028 2.86146,1.12726 5.20266,1.3874 4.94252,0.60697 3.03488,-0.607 -2.60133,-1.5608 -2.3412,-0.43356 -3.20831,-0.34685 -2.60133,0.1734 z"
             fill="#000000"
             id="path14501" /></g><g
           id="Graphic_9"><path
             d="m 196.60343,313.36654 c -1.12723,0.17342 -1.99435,0.7804 -1.99435,1.30066 0,0.52027 0.86712,0.6937 1.99435,0.34685 1.04053,-0.26015 2.16777,-0.52025 2.60133,-0.52025 0.34684,0 0.60698,-0.43357 0.60698,-0.86713 0,-0.52027 -0.26014,-0.78039 -0.60698,-0.78039 -0.43356,0.0867 -1.5608,0.34684 -2.60133,0.52026 z"
             fill="#000000"
             id="path14504" /></g><g
           id="Graphic_8"><path
             d="m 142.5825,314.5805 c 5.63622,0.9538 9.71163,0.9538 9.10465,-0.0867 -0.26013,-0.5203 -3.38172,-0.7804 -6.76345,-0.7804 -5.98306,0.0867 -6.06977,0.1734 -2.3412,0.8671 z"
             fill="#000000"
             id="path14507" /></g><g
           id="Graphic_7"><path
             d="m 166.42802,317.0951 c -0.34685,0.52028 0.95382,0.86712 3.38173,0.86712 2.16777,0 4.16212,-0.43355 4.42225,-0.86712 0.34685,-0.52025 -0.95382,-0.8671 -3.38172,-0.8671 -2.16778,0 -4.16213,0.34685 -4.42226,0.8671 z"
             fill="#000000"
             id="path14510" /></g><g
           id="Graphic_6"><path
             d="m 261.2898,231.42468 c -0.52025,1.12724 -1.82092,2.86146 -2.77474,3.90199 -1.30066,1.47409 -1.47409,1.99436 -0.52026,1.99436 0.69368,0 1.82093,-0.95383 2.60132,-1.99436 1.5608,-2.08107 2.94818,-5.80963 2.16778,-5.80963 -0.26013,0 -0.95382,0.86711 -1.4741,1.90764 z"
             fill="#000000"
             id="path14513" /></g><g
           id="Graphic_5"><path
             d="m 254.9599,247.3795 c -0.9538,2.51462 -0.52025,4.6824 1.4741,7.71727 2.68804,4.16213 3.64186,3.81529 1.38737,-0.52027 -0.95382,-1.99434 -1.64751,-4.50896 -1.38737,-5.72292 0.43355,-2.34118 -0.6937,-3.55514 -1.4741,-1.47408 z"
             fill="#000000"
             id="path14516" /></g><g
           id="Graphic_4"><path
             d="m 262.24363,260.29943 c 0,0.69369 12.22625,8.49767 12.6598,7.97741 0.52027,-0.52027 -10.49203,-8.41096 -11.70598,-8.41096 -0.52025,0 -0.95382,0.17342 -0.95382,0.43355 z"
             fill="#000000"
             id="path14519" /></g></g></g></g><g
     id="jelloped"
     transform="translate(-57.458679,-48.140703)"><path
       style="fill:#ff0000;fill-rule:evenodd;stroke-width:0.236693"
       d="m 275.28906,202.55469 c -1.16308,-0.066 -2.64241,0.52617 -2.8125,1.80859 0.16329,0.81186 1.1358,0.33161 1.6416,0.21314 1.81924,-0.44759 3.65928,0.48551 4.87229,1.78418 2.02624,1.89798 3.62654,4.71477 3.0552,7.59472 -0.27712,0.97963 -0.8808,2.29145 0.0979,3.08936 1.74096,1.52033 3.85,2.56228 5.89869,3.60425 0.84904,0.36893 2.01562,0.90346 2.85791,0.26953 0.41562,-0.65445 0.23871,-1.64805 1.04541,-2.05811 0.92679,-0.56902 2.37448,-0.72137 2.68261,-1.96069 0.21261,-1.00176 -0.9432,-1.47686 -1.75586,-1.4895 -0.44771,0.002 -0.71932,-0.47779 -0.44165,-0.85303 0.29065,-0.7153 -0.0309,-1.64056 -0.85424,-1.77271 -0.40021,-0.31351 0.1294,-0.94798 0.053,-1.37817 0.0982,-0.84246 -0.90564,-0.99825 -1.51416,-0.77808 -0.68097,0.0608 -1.48835,0.53651 -2.12475,0.12036 -0.52864,-0.95964 -0.0731,-2.18834 -0.57886,-3.14209 -0.64901,-0.4637 -0.90806,0.54777 -0.99609,1.00586 -0.20557,0.479 -0.21417,1.22507 -0.69287,1.5066 -0.92536,-0.89679 -0.91214,-2.36197 -1.75127,-3.3442 -1.95137,-2.7044 -5.37164,-4.28204 -8.68233,-4.22001 z"
       id="path14871"
       transform="scale(0.26458333)" /></g><metadata
     id="metadata6644"><rdf:RDF><cc:Work
         rdf:about=""><dc:creator><cc:Agent><dc:title>vlk2020</dc:title></cc:Agent></dc:creator></cc:Work></rdf:RDF></metadata></svg>
