<?xml version="1.0" encoding="UTF-8" standalone="no"?>
<svg
   width="500"
   height="491.927"
   viewBox="-1 -0.968 2 1.968"
   version="1.1"
   id="svg141"
   sodipodi:docname="Emblem_of_Iran.svg"
   inkscape:version="1.2.2 (b0a84865, 2022-12-01)"
   xmlns:inkscape="http://www.inkscape.org/namespaces/inkscape"
   xmlns:sodipodi="http://sodipodi.sourceforge.net/DTD/sodipodi-0.dtd"
   xmlns="http://www.w3.org/2000/svg"
   xmlns:svg="http://www.w3.org/2000/svg">
  <defs
     id="defs145" />
  <sodipodi:namedview
     id="namedview143"
     pagecolor="#ffffff"
     bordercolor="#000000"
     borderopacity="0.25"
     inkscape:showpageshadow="2"
     inkscape:pageopacity="0.0"
     inkscape:pagecheckerboard="0"
     inkscape:deskcolor="#d1d1d1"
     showgrid="false"
     inkscape:zoom="0.35445826"
     inkscape:cx="-169.2724"
     inkscape:cy="369.57807"
     inkscape:window-width="1440"
     inkscape:window-height="900"
     inkscape:window-x="0"
     inkscape:window-y="0"
     inkscape:window-maximized="0"
     inkscape:current-layer="svg141" />
  <path
     d="M -0.548,0.836 A 0.912,0.912 0 0 0 0.329,-0.722 1,1 0 0 1 -0.548,0.836"
     id="path132"
     style="fill:#ffff00;stroke-linecap:round;stroke-linejoin:round" />
  <path
     d="M 0.618,0.66 A 0.764,0.764 0 0 0 0.422,-0.741 1,1 0 0 1 0.618,0.661 M 0,1 -0.05,0 0,-0.787 a 0.31,0.31 0 0 0 0.118,0.099 V -0.1 l -0.04,0.993 z"
     id="path134"
     style="fill:#ffff00;stroke-linecap:round;stroke-linejoin:round" />
  <path
     d="M -0.02,-0.85 0,-0.83 A 0.144,0.144 0 0 0 0.252,-0.966 0.136,0.136 0 0 1 0,-0.925"
     id="path136"
     style="fill:#ffff00;stroke-linecap:round;stroke-linejoin:round" />
  <path
     d="M 0.548,0.836 A 0.912,0.912 0 0 1 -0.329,-0.722 1,1 0 0 0 0.548,0.836"
     id="path477"
     style="fill:#ffff00;stroke-linecap:round;stroke-linejoin:round" />
  <path
     d="m -0.618,0.66 a 0.764,0.764 0 0 1 0.196,-1.401 1,1 0 0 0 -0.196,1.402 M 0,1 0.05,0 0,-0.787 a 0.31,0.31 0 0 1 -0.118,0.099 V -0.1 l 0.04,0.993 z"
     id="path479"
     style="fill:#ffff00;stroke-linecap:round;stroke-linejoin:round" />
  <path
     d="M 0.02,-0.85 0,-0.83 A 0.144,0.144 0 0 1 -0.252,-0.966 0.136,0.136 0 0 0 0,-0.925"
     id="path481"
     style="fill:#ffff00;stroke-linecap:round;stroke-linejoin:round" />
  <path
     id="path491"
     style="fill:none;stroke:#cccccc;stroke-opacity:1;stroke-width:0.02000297;stroke-dasharray:none;stroke-linecap:round;stroke-linejoin:round"
     d="M -0.25199833 -0.9659997 A 0.144 0.144 0 0 0 0 -0.83000296 A 0.144 0.144 0 0 0 0.25199833 -0.9659997 A 0.136 0.136 0 0 1 0 -0.92500143 A 0.136 0.136 0 0 1 -0.25199833 -0.9659997 z M 0 -0.78699658 A 0.31 0.31 0 0 1 -0.11800188 -0.68799752 L -0.11800188 -0.099996214 L -0.087950549 0.64598947 A 1 1 0 0 1 -0.32900194 -0.72200256 A 0.912 0.912 0 0 0 -0.15637476 0.77623535 A 1 1 0 0 1 -0.54800318 0.83600203 A 0.912 0.912 0 0 0 -0.079293015 0.86089635 L -0.078003761 0.89300268 L 0 1.0000029 L 0.078003761 0.89300268 L 0.079293015 0.86090417 A 0.912 0.912 0 0 0 0.54800318 0.83600203 A 1 1 0 0 1 0.15638258 0.77623535 A 0.912 0.912 0 0 0 0.32900194 -0.72200256 A 1 1 0 0 1 0.087958363 0.64598947 L 0.11800188 -0.099996214 L 0.11800188 -0.68799752 A 0.31 0.31 0 0 1 0 -0.78699658 z M -0.42200011 -0.74099757 A 0.764 0.764 0 0 0 -0.61934189 0.65921018 A 1 1 0 0 1 -0.42200011 -0.74099757 z M -0.61934189 0.65921018 A 1 1 0 0 0 -0.61799794 0.66099951 L -0.61799794 0.65999936 A 0.764 0.764 0 0 1 -0.61934189 0.65921018 z M 0.42200011 -0.74099757 A 1 1 0 0 1 0.61934971 0.65921018 A 0.764 0.764 0 0 0 0.42200011 -0.74099757 z M 0.61934971 0.65921018 A 0.764 0.764 0 0 1 0.61799794 0.65999936 L 0.61799794 0.66099951 A 1 1 0 0 0 0.61934971 0.65921018 z " />
</svg>
